<?xml version="1.0" encoding="UTF-8" standalone="no"?>
<!-- Created with Inkscape (http://www.inkscape.org/) -->

<svg
   viewBox="0 0 210 297"
   version="1.1"
   id="svg5"
   inkscape:version="1.2.2 (b0a8486541, 2022-12-01)"
   sodipodi:docname="bitmapbottom.svg"
   xmlns:inkscape="http://www.inkscape.org/namespaces/inkscape"
   xmlns:sodipodi="http://sodipodi.sourceforge.net/DTD/sodipodi-0.dtd"
   xmlns="http://www.w3.org/2000/svg"
   xmlns:svg="http://www.w3.org/2000/svg">
  <sodipodi:namedview
     id="namedview7"
     pagecolor="#505050"
     bordercolor="#eeeeee"
     borderopacity="1"
     inkscape:showpageshadow="0"
     inkscape:pageopacity="0"
     inkscape:pagecheckerboard="0"
     inkscape:deskcolor="#505050"
     inkscape:document-units="mm"
     showgrid="false"
     inkscape:zoom="0.914906"
     inkscape:cx="397.85508"
     inkscape:cy="821.39586"
     inkscape:window-width="2556"
     inkscape:window-height="1412"
     inkscape:window-x="0"
     inkscape:window-y="0"
     inkscape:window-maximized="1"
     inkscape:current-layer="layer1" />
  <defs
     id="defs2" />
  <g
     inkscape:label="Layer 1"
     inkscape:groupmode="layer"
     id="layer1">
    <g
       aria-label="011011010110110110101010110101010101101111111010110101010100"
       transform="translate(1.7809522,-63.684722)"
       id="text574"
       style="font-size:8.46667px;line-height:1.05;letter-spacing:2.64583px;word-spacing:0px;stroke-width:0.264583">
      <path
         d="m 10.749774,171.21935 q -0.228484,-0.60309 -0.9395501,-0.68294 -0.7057358,-0.0775 -1.8964553,0.37365 -1.1868535,0.44964 -1.6679712,0.97675 -0.4757871,0.5295 -0.2473031,1.13259 0.2299487,0.60696 0.9356845,0.68441 0.7110664,0.0799 1.89792,-0.36979 1.1907192,-0.4511 1.6665062,-0.98061 0.481118,-0.5271 0.251169,-1.13406 z m 0.618556,-0.23434 q 0.367625,0.97036 -0.208371,1.77213 -0.570665,0.80418 -2.0320027,1.35781 -1.4574716,0.55217 -2.4215974,0.32946 -0.9587952,-0.22031 -1.3264202,-1.19067 -0.367625,-0.97036 0.2030403,-1.77453 0.5759958,-0.80177 2.0334674,-1.35394 1.4613376,-0.55364 2.4201326,-0.33333 0.964126,0.22271 1.331751,1.19307 z"
         id="path617" />
      <path
         d="m 8.4846989,178.94503 0.5127152,1.26425 4.3635729,-1.76964 -0.833608,-1.26349 0.704914,-0.28588 0.8305,1.25583 0.313844,0.77387 -5.0684865,2.05552 0.5127152,1.26425 -0.6512795,0.26412 -1.3361668,-3.2947 z"
         id="path619" />
      <path
         d="m 11.540514,186.36235 0.535579,1.25473 4.330732,-1.84856 -0.856405,-1.24814 0.699609,-0.29863 0.853159,1.24054 0.327839,0.76805 -5.03034,2.14718 0.535579,1.25474 -0.646378,0.2759 -1.395751,-3.26991 z"
         id="path621" />
      <path
         d="m 19.889511,193.2145 q -0.263469,-0.58865 -0.977996,-0.62666 -0.709064,-0.0359 -1.87127,0.48427 -1.158432,0.51849 -1.607801,1.07291 -0.443906,0.5565 -0.180436,1.14515 0.265158,0.59242 0.974222,0.62834 0.714526,0.038 1.872959,-0.48049 1.162206,-0.52018 1.606112,-1.07668 0.449368,-0.55442 0.18421,-1.14684 z m 0.603743,-0.27022 q 0.423916,0.94712 -0.104055,1.7813 -0.522508,0.83626 -1.948851,1.47467 -1.422571,0.63672 -2.398101,0.47095 -0.970068,-0.16369 -1.393983,-1.11081 -0.423915,-0.94712 0.09859,-1.78339 0.52797,-0.83418 1.950541,-1.47089 1.426343,-0.63841 2.396411,-0.47473 0.97553,0.16577 1.399445,1.1129 z"
         id="path623" />
      <path
         d="m 18.04357,201.03119 0.579269,1.23517 4.263213,-1.99935 -0.899665,-1.21734 0.688701,-0.32298 0.896155,1.20984 0.354583,0.75608 -4.951916,2.32234 0.579269,1.23517 -0.636301,0.29841 -1.509608,-3.21893 z"
         id="path625" />
      <path
         d="m 21.489939,208.27852 0.602051,1.22422 4.225444,-2.07798 -0.922062,-1.20046 0.6826,-0.33569 0.918414,1.19304 0.368527,0.74938 -4.908044,2.41367 0.60205,1.22423 -0.630663,0.31015 -1.56898,-3.19042 z"
         id="path627" />
      <path
         d="m 30.193358,214.65337 q -0.296023,-0.57297 -1.011556,-0.5709 -0.709963,0.004 -1.841213,0.5883 -1.127576,0.58256 -1.545189,1.16127 -0.412043,0.58049 -0.11602,1.15346 0.29792,0.57664 1.007884,0.5728 0.715533,-0.002 1.843109,-0.58463 1.13125,-0.58446 1.543292,-1.16494 0.417614,-0.57872 0.119693,-1.15536 z m 0.587662,-0.30361 q 0.476293,0.92189 -0.0041,1.78433 -0.474854,0.86422 -1.863205,1.5815 -1.384678,0.71539 -2.367961,0.60452 -0.977713,-0.1091 -1.454006,-1.031 -0.476293,-0.92189 -0.0014,-1.78611 0.480424,-0.86244 1.865102,-1.57783 1.388352,-0.71728 2.366064,-0.60818 0.983283,0.11087 1.459576,1.03277 z"
         id="path629" />
      <path
         d="m 28.793299,222.55381 0.652208,1.19826 4.13581,-2.25111 -0.970961,-1.16126 0.66812,-0.36365 0.967009,1.154 0.39923,0.73348 -4.80393,2.61476 0.652208,1.19826 -0.617285,0.33598 -1.699694,-3.12273 z"
         id="path631" />
      <path
         d="m 37.755604,228.53655 q -0.321739,-0.55894 -1.03644,-0.52437 -0.709056,0.0361 -1.812595,0.67131 -1.099956,0.63316 -1.490856,1.23025 -0.385255,0.5986 -0.06352,1.15753 0.323801,0.56252 1.032857,0.52644 0.714702,-0.0346 1.814658,-0.66773 1.103538,-0.63523 1.488793,-1.23383 0.3909,-0.59708 0.0671,-1.1596 z m 0.573267,-0.32999 q 0.517669,0.89931 0.07691,1.78268 -0.435115,0.88489 -1.789458,1.66449 -1.35076,0.77753 -2.338064,0.71143 -0.981658,-0.0646 -1.499328,-0.9639 -0.51767,-0.89931 -0.08255,-1.7842 0.44076,-0.88337 1.791521,-1.6609 1.354343,-0.7796 2.336001,-0.71502 0.987304,0.0661 1.504974,0.96542 z"
         id="path633" />
      <path
         d="m 36.723567,236.48354 0.711995,1.16373 4.016626,-2.45747 -1.028469,-1.11065 0.648867,-0.39699 1.024153,1.1036 0.435828,0.71234 -4.665492,2.85446 0.711995,1.16372 -0.599496,0.36679 -1.855504,-3.03275 z"
         id="path635" />
      <path
         d="m 40.962983,243.28132 0.747134,1.14149 3.939857,-2.57875 -1.061843,-1.07878 0.636465,-0.41659 1.057315,1.07187 0.457337,0.69873 -4.576322,2.99533 0.747134,1.14149 -0.588038,0.38488 -1.947078,-2.97478 z"
         id="path637" />
      <path
         d="m 50.379638,248.44101 q -0.372012,-0.52681 -1.080462,-0.42635 -0.702687,0.10145 -1.742804,0.83593 -1.03674,0.7321 -1.370792,1.36275 -0.328291,0.63165 0.04372,1.15846 0.374397,0.53019 1.077084,0.42873 0.70845,-0.10045 1.745189,-0.83256 1.040117,-0.73448 1.368408,-1.36612 0.334052,-0.63065 -0.04035,-1.16084 z m 0.540321,-0.38155 q 0.598558,0.84762 0.241314,1.76794 -0.351482,0.92131 -1.627989,1.82273 -1.27313,0.89903 -2.262318,0.92444 -0.983427,0.0264 -1.581985,-0.82122 -0.598558,-0.84763 -0.247076,-1.76894 0.357244,-0.92032 1.630374,-1.81935 1.276507,-0.90141 2.259933,-0.92782 0.989188,-0.0254 1.587747,0.82222 z"
         id="path639" />
      <path
         d="m 50.105944,256.42222 0.832618,1.08071 3.73011,-2.87379 -1.14158,-0.99402 0.602582,-0.46425 1.136533,0.98747 0.509663,0.66153 -4.332691,3.33804 0.832617,1.08072 -0.556732,0.42893 -2.169853,-2.81642 z"
         id="path641" />
      <path
         d="m 55.073394,262.68982 0.885624,1.03773 3.581721,-3.05674 -1.189863,-0.9357 0.57861,-0.4938 1.184496,0.9294 0.542109,0.63522 -4.160332,3.55054 0.885624,1.03773 -0.534586,0.45623 -2.307988,-2.70438 z"
         id="path643" />
      <path
         d="m 65.039009,266.44157 q -0.448032,-0.46389 -1.132861,-0.25652 -0.678983,0.20748 -1.594864,1.09205 -0.912907,0.88171 -1.146831,1.55594 -0.228079,0.67433 0.219953,1.13822 0.450904,0.46686 1.129887,0.25939 0.684828,-0.20737 1.597736,-1.08908 0.915881,-0.88457 1.143959,-1.55891 0.233925,-0.67423 -0.216979,-1.14109 z m 0.475782,-0.45952 q 0.720872,0.74638 0.508222,1.71043 -0.206805,0.96415 -1.33084,2.04977 -1.121063,1.08274 -2.094793,1.25878 -0.967884,0.17613 -1.688756,-0.57025 -0.720873,-0.74638 -0.514068,-1.71053 0.21265,-0.96405 1.333712,-2.0468 1.124036,-1.08561 2.091921,-1.26175 0.97373,-0.17603 1.694602,0.57035 z"
         id="path645" />
      <path
         d="m 66.020379,274.29959 1.020971,0.90489 3.123228,-3.5239 -1.308122,-0.76165 0.504543,-0.56927 1.301934,0.75617 0.624958,0.5539 -3.627771,4.09316 1.020971,0.90489 -0.466154,0.52596 -2.660712,-2.35819 z"
         id="path647" />
      <path
         d="m 72.116804,279.41894 1.106487,0.79806 2.754489,-3.81906 -1.377844,-0.62677 0.444975,-0.61695 1.371138,0.62193 0.677304,0.48851 -3.199463,4.436 1.106487,0.79806 -0.411118,0.57001 -2.883572,-2.07978 z"
         id="path649" />
      <path
         d="m 82.484933,280.27516 q -0.56831,-0.30488 -1.157073,0.10176 -0.583166,0.40494 -1.185095,1.52699 -0.599975,1.11841 -0.616785,1.83187 -0.01121,0.71177 0.557098,1.01664 0.571954,0.30683 1.155119,-0.0981 0.588763,-0.40664 1.188739,-1.52504 0.601929,-1.12205 0.613141,-1.83383 0.01681,-0.71346 -0.555144,-1.02028 z m 0.312691,-0.58289 q 0.914397,0.49054 1.006366,1.47347 0.09757,0.98124 -0.641165,2.3583 -0.736778,1.37341 -1.610208,1.83845 -0.867832,0.46335 -1.782229,-0.0272 -0.914397,-0.49053 -1.011964,-1.47177 -0.09197,-0.98293 0.644809,-2.35635 0.738731,-1.37706 1.606564,-1.8404 0.87343,-0.46504 1.787827,0.0255 z"
         id="path651" />
      <path
         d="m 85.845411,287.24532 1.296135,0.42572 1.469369,-4.47363 -1.502922,-0.18033 0.237369,-0.7227 1.495067,0.17776 0.793391,0.26059 -1.706737,5.19632 1.296135,0.42572 -0.219309,0.6677 -3.377806,-1.10944 z"
         id="path653" />
      <path
         d="m 95.5638,284.50888 q -0.641937,-0.062 -1.028209,0.54034 -0.381761,0.5986 -0.50414,1.86601 -0.121982,1.2633 0.137797,1.928 0.264291,0.66098 0.906227,0.72296 0.646052,0.0624 1.027812,-0.53622 0.386273,-0.60231 0.508255,-1.86561 0.122379,-1.26742 -0.141912,-1.9284 -0.259779,-0.6647 -0.90583,-0.72708 z m 0.06357,-0.65839 q 1.03286,0.0997 1.496967,0.97106 0.46862,0.86761 0.318427,2.42307 -0.149795,1.55135 -0.776156,2.31738 -0.62185,0.76232 -1.654709,0.66259 -1.03286,-0.0997 -1.501479,-0.96734 -0.464108,-0.87133 -0.314313,-2.42268 0.150193,-1.55546 0.772042,-2.31778 0.626362,-0.76603 1.659221,-0.6663 z"
         id="path655" />
      <path
         d="m 101.3054,289.44038 1.34921,-0.20206 -0.69741,-4.65683 -1.4237,0.5142 -0.11266,-0.75229 1.41552,-0.51297 0.82588,-0.12368 0.81008,5.40911 1.34921,-0.20206 0.10409,0.69505 -3.51613,0.52658 z"
         id="path657" />
      <path
         d="m 108.78554,282.57179 q -0.603,0.22872 -0.68257,0.93982 -0.0772,0.70577 0.37441,1.89631 0.45012,1.18667 0.97741,1.66758 0.52969,0.47558 1.13269,0.24685 0.60687,-0.23019 0.68404,-0.93595 0.0796,-0.7111 -0.37054,-1.89778 -0.45159,-1.19054 -0.98128,-1.66611 -0.52729,-0.48091 -1.13416,-0.25072 z m -0.23459,-0.61846 q 0.97022,-0.36801 1.77222,0.20766 0.8044,0.57035 1.35862,2.03146 0.55275,1.45726 0.33042,2.42147 -0.21993,0.95888 -1.19014,1.32689 -0.97021,0.36802 -1.77461,-0.20233 -0.802,-0.57567 -1.35475,-2.03293 -0.55422,-1.46111 -0.33429,-2.42 0.22232,-0.96421 1.19253,-1.33222 z"
         id="path659" />
      <path
         d="m 116.23202,284.55806 1.17824,-0.68772 -2.37368,-4.0667 -1.13173,1.00522 -0.38345,-0.65695 1.12458,-1.00106 0.72123,-0.42097 2.75713,4.72366 1.17824,-0.68772 0.35428,0.60697 -3.07055,1.79224 z"
         id="path661" />
      <path
         d="m 121.23985,275.37739 q -0.51229,0.39177 -0.38498,1.09589 0.12809,0.69832 0.90159,1.70976 0.77098,1.00817 1.41387,1.318 0.64366,0.30405 1.15595,-0.0877 0.51558,-0.39428 0.38749,-1.0926 -0.12732,-0.70412 -0.8983,-1.71228 -0.77349,-1.01145 -1.41716,-1.31549 -0.64289,-0.30984 -1.15846,0.0844 z m -0.40182,-0.52543 q 0.82427,-0.63034 1.7575,-0.30834 0.93401,0.31621 1.88329,1.55752 0.94678,1.23804 1.00977,2.22555 0.0638,0.98171 -0.76049,1.61206 -0.82426,0.63034 -1.75827,0.31413 -0.93323,-0.322 -1.88001,-1.56003 -0.94928,-1.24132 -1.01305,-2.22304 -0.063,-0.9875 0.76126,-1.61785 z"
         id="path663" />
      <path
         d="m 129.10162,275.25474 1.00081,-0.92714 -3.20002,-3.45431 -0.88647,1.22696 -0.51695,-0.55802 0.88041,-1.22135 0.61262,-0.56752 3.71696,4.01234 1.00082,-0.92713 0.47761,0.51557 -2.60817,2.41616 z"
         id="path665" />
      <path
         d="m 134.82746,269.69678 0.93039,-0.9978 -3.4439,-3.21122 -0.79444,1.28847 -0.55635,-0.51876 0.78881,-1.28243 0.5695,-0.61077 4.00024,3.72999 0.93039,-0.99779 0.51401,0.47928 -2.42463,2.60031 z"
         id="path667" />
      <path
         d="m 137.42861,259.34967 q -0.41162,0.49648 -0.12996,1.15424 0.28113,0.65195 1.26136,1.46464 0.97704,0.81005 1.67297,0.96815 0.69538,0.15228 1.107,-0.3442 0.41426,-0.49966 0.13314,-1.1516 -0.28167,-0.65777 -1.25871,-1.46782 -0.98023,-0.81269 -1.67561,-0.96497 -0.69593,-0.15811 -1.11019,0.34156 z m -0.50921,-0.42218 q 0.66229,-0.79882 1.64391,-0.69384 0.98108,0.0992 2.18409,1.09655 1.19983,0.99475 1.48223,1.94312 0.28185,0.94254 -0.38044,1.74136 -0.66229,0.79882 -1.64337,0.69966 -0.98162,-0.10498 -2.18145,-1.09973 -1.20301,-0.99739 -1.48486,-1.93993 -0.2824,-0.94837 0.37989,-1.74719 z"
         id="path669" />
      <path
         d="m 145.18123,257.51966 0.81988,-1.09042 -3.76359,-2.8298 -0.65402,1.36512 -0.60799,-0.45714 0.64905,-1.35851 0.50186,-0.66747 4.37158,3.28695 0.81987,-1.09042 0.56173,0.42236 -2.13664,2.84169 z"
         id="path671" />
      <path
         d="m 146.7997,246.91438 q -0.36685,0.53042 -0.029,1.16118 0.3368,0.625 1.38404,1.34928 1.04385,0.72194 1.75089,0.81887 0.706,0.0912 1.07285,-0.43924 0.3692,-0.53383 0.0324,-1.15883 -0.33785,-0.63075 -1.3817,-1.35269 -1.04724,-0.72428 -1.75324,-0.81546 -0.70705,-0.0969 -1.07624,0.43689 z m -0.54403,-0.37625 q 0.59025,-0.85344 1.57729,-0.8343 0.98599,0.0134 2.27124,0.90229 1.28186,0.88655 1.64573,1.80673 0.36282,0.91443 -0.22743,1.76787 -0.59024,0.85344 -1.57623,0.84004 -0.98704,-0.0191 -2.2689,-0.90569 -1.28525,-0.88889 -1.64807,-1.80332 -0.36387,-0.92019 0.22637,-1.77362 z"
         id="path673" />
      <path
         d="m 154.39881,244.42818 0.73775,-1.14758 -3.96086,-2.54636 -0.55221,1.40938 -0.63985,-0.41135 0.54773,-1.40243 0.4516,-0.70246 4.60072,2.95773 0.73775,-1.14757 0.59117,0.38005 -1.92263,2.99064 z"
         id="path675" />
      <path
         d="m 155.30346,233.70542 q -0.33278,0.55244 0.044,1.16071 0.37543,0.60259 1.46613,1.25961 1.08716,0.65489 1.7989,0.70719 0.71033,0.0466 1.04311,-0.50582 0.33491,-0.55597 -0.0405,-1.15857 -0.37683,-0.60827 -1.46399,-1.26316 -1.09071,-0.65702 -1.80104,-0.70364 -0.71174,-0.0523 -1.04665,0.50368 z m -0.5666,-0.34131 q 0.53543,-0.88885 1.52172,-0.93179 0.98488,-0.0486 2.32347,0.75773 1.33505,0.80421 1.75605,1.6997 0.41958,0.88982 -0.11585,1.77867 -0.53543,0.88885 -1.52031,0.93747 -0.98629,0.0429 -2.32134,-0.76127 -1.33859,-0.80635 -1.75818,-1.69616 -0.42099,-0.89549 0.11444,-1.78435 z"
         id="path677" />
      <path
         d="m 162.75186,230.75222 0.67374,-1.18629 -4.0945,-2.32541 -0.47411,1.43753 -0.66145,-0.37565 0.47003,-1.43035 0.41241,-0.72615 4.75594,2.70106 0.67374,-1.18628 0.61111,0.34707 -1.75579,3.09154 z"
         id="path679" />
      <path
         d="m 163.10722,219.97758 q -0.30558,0.56793 0.10033,1.1572 0.40423,0.58366 1.52554,1.18697 1.11766,0.60135 1.8311,0.61904 0.71176,0.0121 1.01733,-0.55585 0.30754,-0.57157 -0.0967,-1.15524 -0.40591,-0.58926 -1.52358,-1.19061 -1.1213,-0.60331 -1.83306,-0.6154 -0.71344,-0.0177 -1.02097,0.55389 z m -0.5825,-0.31341 q 0.49166,-0.91379 1.4747,-1.00455 0.98136,-0.0964 2.35751,0.64407 1.37251,0.73846 1.83647,1.61247 0.46228,0.8684 -0.0294,1.78219 -0.49166,0.91379 -1.47302,1.01015 -0.98304,0.0908 -2.35555,-0.64771 -1.37615,-0.74042 -1.83843,-1.60883 -0.46396,-0.874 0.0277,-1.78779 z"
         id="path681" />
      <path
         d="m 170.41661,216.66867 0.62138,-1.21453 -4.19196,-2.14472 -0.411,1.45683 -0.6772,-0.34647 0.40724,-1.44947 0.38037,-0.74344 4.86915,2.4912 0.62139,-1.21453 0.62566,0.3201 -1.61937,3.16514 z"
         id="path683" />
      <path
         d="m 170.32646,205.87586 q -0.28278,0.57963 0.14621,1.1523 0.42708,0.56716 1.57146,1.12546 1.14067,0.5565 1.85425,0.54584 0.71167,-0.0162 0.99445,-0.59581 0.28459,-0.58333 -0.14249,-1.15049 -0.42899,-0.57267 -1.56965,-1.12917 -1.14438,-0.55831 -1.85606,-0.54212 -0.71358,0.0107 -0.99817,0.59399 z m -0.59449,-0.29003 q 0.45499,-0.93259 1.43365,-1.06232 0.97676,-0.13525 2.38123,0.54995 1.40075,0.68338 1.89905,1.53827 0.4964,0.84936 0.0414,1.78195 -0.45499,0.9326 -1.43175,1.06785 -0.97866,0.12973 -2.37941,-0.55366 -1.40447,-0.68519 -1.90087,-1.53455 -0.4983,-0.85489 -0.0433,-1.78749 z"
         id="path685" />
      <path
         d="m 177.50932,202.27503 0.57637,-1.23653 -4.26789,-1.98935 -0.35724,1.47094 -0.68945,-0.32137 0.35374,-1.46345 0.35281,-0.7569 4.95734,2.31072 0.57637,-1.23652 0.637,0.29691 -1.50206,3.22247 z"
         id="path687" />
      <path
         d="m 180.86182,194.98718 0.55552,-1.24604 -4.3007,-1.91739 -0.33248,1.47673 -0.69476,-0.30974 0.32912,-1.46919 0.34005,-0.76272 4.99545,2.22714 0.55552,-1.24603 0.6419,0.28618 -1.44773,3.24724 z"
         id="path689" />
      <path
         d="m 180.2092,184.21022 q -0.25298,0.59323 0.20454,1.14339 0.45534,0.54473 1.62659,1.0442 1.16746,0.49785 1.87958,0.45096 0.70993,-0.0523 0.96291,-0.64554 0.2546,-0.59703 -0.20074,-1.14176 -0.45751,-0.55016 -1.62497,-1.04801 -1.17125,-0.49947 -1.88119,-0.44716 -0.71212,0.0469 -0.96672,0.64392 z m -0.60844,-0.25947 q 0.40703,-0.95449 1.37784,-1.13375 0.96863,-0.18468 2.40609,0.4283 1.43365,0.61137 1.97472,1.43984 0.53889,0.82306 0.13186,1.77756 -0.40704,0.9545 -1.37567,1.13918 -0.97081,0.17926 -2.40446,-0.43211 -1.43745,-0.61298 -1.97635,-1.43604 -0.54107,-0.82848 -0.13403,-1.78298 z"
         id="path691" />
      <path
         d="m 187.20537,180.24803 0.51463,-1.26348 -4.36089,-1.77624 -0.28419,1.48679 -0.70448,-0.28694 0.28107,-1.47913 0.31501,-0.7734 5.06537,2.06318 0.51463,-1.26347 0.65088,0.26511 -1.34115,3.29269 z"
         id="path693" />
      <path
         d="m 190.21319,172.74445 0.50417,-1.26768 -4.37542,-1.74015 -0.27189,1.48909 -0.70683,-0.28112 0.26884,-1.4814 0.30861,-0.77597 5.08225,2.02126 0.50417,-1.26768 0.65304,0.25972 -1.31389,3.30365 z"
         id="path695" />
      <path
         d="m 322.35341,-0.70279976 h 1.36426 V -5.4115581 l -1.48415,0.2976563 v -0.7606774 l 1.47588,-0.2976563 h 0.83509 v 5.46943574 h 1.36426 V 0 h -3.55534 z"
         id="path697" />
      <path
         d="m 330.386,-0.70279976 h 1.36426 V -5.4115581 l -1.48415,0.2976563 v -0.7606774 l 1.47588,-0.2976563 h 0.83509 v 5.46943574 h 1.36426 V 0 H 330.386 Z"
         id="path699" />
      <path
         d="m 338.41857,-0.70279976 h 1.36425 V -5.4115581 l -1.48414,0.2976563 v -0.7606774 l 1.47588,-0.2976563 h 0.83509 v 5.46943574 h 1.36426 V 0 h -3.55534 z"
         id="path701" />
      <path
         d="m 346.45116,-0.70279976 h 1.36426 V -5.4115581 l -1.48415,0.2976563 v -0.7606774 l 1.47588,-0.2976563 h 0.83509 v 5.46943574 h 1.36426 V 0 h -3.55534 z"
         id="path703" />
      <path
         d="m 354.48375,-0.70279976 h 1.36426 V -5.4115581 l -1.48415,0.2976563 v -0.7606774 l 1.47588,-0.2976563 h 0.83509 v 5.46943574 h 1.36426 V 0 h -3.55534 z"
         id="path705" />
      <path
         d="m 364.15756,-5.6223981 q -0.64492,0 -0.97152,0.6366539 -0.32246,0.6325198 -0.32246,1.9058276 0,1.2691737 0.32246,1.9058276 0.3266,0.63251977 0.97152,0.63251977 0.64905,0 0.97151,-0.63251977 0.3266,-0.6366539 0.3266,-1.9058276 0,-1.2733078 -0.3266,-1.9058276 -0.32246,-0.6366539 -0.97151,-0.6366539 z m 0,-0.6614586 q 1.03766,0 1.58336,0.8226892 0.54984,0.818555 0.54984,2.3812509 0,1.5585618 -0.54984,2.38125096 -0.5457,0.81855501 -1.58336,0.81855501 -1.03767,0 -1.5875,-0.81855501 -0.54571,-0.82268916 -0.54571,-2.38125096 0,-1.5626959 0.54571,-2.3812509 0.54983,-0.8226892 1.5875,-0.8226892 z"
         id="path707" />
      <path
         d="m 370.54891,-0.70279976 h 1.36425 V -5.4115581 l -1.48414,0.2976563 v -0.7606774 l 1.47588,-0.2976563 h 0.83509 v 5.46943574 h 1.36426 V 0 h -3.55534 z"
         id="path709" />
      <path
         d="m 380.22274,-5.6223981 q -0.64492,0 -0.97151,0.6366539 -0.32247,0.6325198 -0.32247,1.9058276 0,1.2691737 0.32247,1.9058276 0.32659,0.63251977 0.97151,0.63251977 0.64906,0 0.97152,-0.63251977 0.3266,-0.6366539 0.3266,-1.9058276 0,-1.2733078 -0.3266,-1.9058276 -0.32246,-0.6366539 -0.97152,-0.6366539 z m 0,-0.6614586 q 1.03767,0 1.58337,0.8226892 0.54984,0.818555 0.54984,2.3812509 0,1.5585618 -0.54984,2.38125096 -0.5457,0.81855501 -1.58337,0.81855501 -1.03766,0 -1.5875,-0.81855501 -0.5457,-0.82268916 -0.5457,-2.38125096 0,-1.5626959 0.5457,-2.3812509 0.54984,-0.8226892 1.5875,-0.8226892 z"
         id="path711" />
      <path
         d="m 386.61406,-0.70279976 h 1.36426 V -5.4115581 l -1.48415,0.2976563 v -0.7606774 l 1.47588,-0.2976563 h 0.83509 v 5.46943574 h 1.36426 V 0 h -3.55534 z"
         id="path713" />
      <path
         d="m 394.64665,-0.70279976 h 1.36426 V -5.4115581 l -1.48415,0.2976563 v -0.7606774 l 1.47588,-0.2976563 h 0.8351 v 5.46943574 h 1.36425 V 0 h -3.55534 z"
         id="path715" />
      <path
         d="m 404.32049,-5.6223981 q -0.64492,0 -0.97152,0.6366539 -0.32246,0.6325198 -0.32246,1.9058276 0,1.2691737 0.32246,1.9058276 0.3266,0.63251977 0.97152,0.63251977 0.64906,0 0.97152,-0.63251977 0.32659,-0.6366539 0.32659,-1.9058276 0,-1.2733078 -0.32659,-1.9058276 -0.32246,-0.6366539 -0.97152,-0.6366539 z m 0,-0.6614586 q 1.03766,0 1.58337,0.8226892 0.54983,0.818555 0.54983,2.3812509 0,1.5585618 -0.54983,2.38125096 -0.54571,0.81855501 -1.58337,0.81855501 -1.03766,0 -1.5875,-0.81855501 -0.5457,-0.82268916 -0.5457,-2.38125096 0,-1.5626959 0.5457,-2.3812509 0.54984,-0.8226892 1.5875,-0.8226892 z"
         id="path717" />
      <path
         d="m 410.71181,-0.70279976 h 1.36426 V -5.4115581 l -1.48415,0.2976563 v -0.7606774 l 1.47588,-0.2976563 h 0.83509 v 5.46943574 h 1.36426 V 0 h -3.55534 z"
         id="path719" />
      <path
         d="m 420.38565,-5.6223981 q -0.64493,0 -0.97152,0.6366539 -0.32246,0.6325198 -0.32246,1.9058276 0,1.2691737 0.32246,1.9058276 0.32659,0.63251977 0.97152,0.63251977 0.64905,0 0.97151,-0.63251977 0.3266,-0.6366539 0.3266,-1.9058276 0,-1.2733078 -0.3266,-1.9058276 -0.32246,-0.6366539 -0.97151,-0.6366539 z m 0,-0.6614586 q 1.03766,0 1.58336,0.8226892 0.54984,0.818555 0.54984,2.3812509 0,1.5585618 -0.54984,2.38125096 -0.5457,0.81855501 -1.58336,0.81855501 -1.03767,0 -1.58751,-0.81855501 -0.5457,-0.82268916 -0.5457,-2.38125096 0,-1.5626959 0.5457,-2.3812509 0.54984,-0.8226892 1.58751,-0.8226892 z"
         id="path721" />
      <path
         d="m 426.77699,-0.70279976 h 1.36426 V -5.4115581 l -1.48415,0.2976563 v -0.7606774 l 1.47588,-0.2976563 h 0.8351 v 5.46943574 h 1.36425 V 0 h -3.55534 z"
         id="path723" />
      <path
         d="m 436.45083,-5.6223981 q -0.64492,0 -0.97152,0.6366539 -0.32246,0.6325198 -0.32246,1.9058276 0,1.2691737 0.32246,1.9058276 0.3266,0.63251977 0.97152,0.63251977 0.64906,0 0.97152,-0.63251977 0.32659,-0.6366539 0.32659,-1.9058276 0,-1.2733078 -0.32659,-1.9058276 -0.32246,-0.6366539 -0.97152,-0.6366539 z m 0,-0.6614586 q 1.03766,0 1.58337,0.8226892 0.54984,0.818555 0.54984,2.3812509 0,1.5585618 -0.54984,2.38125096 -0.54571,0.81855501 -1.58337,0.81855501 -1.03766,0 -1.5875,-0.81855501 -0.5457,-0.82268916 -0.5457,-2.38125096 0,-1.5626959 0.5457,-2.3812509 0.54984,-0.8226892 1.5875,-0.8226892 z"
         id="path725" />
      <path
         d="m 442.84215,-0.70279976 h 1.36426 V -5.4115581 l -1.48415,0.2976563 v -0.7606774 l 1.47588,-0.2976563 h 0.83509 v 5.46943574 h 1.36426 V 0 h -3.55534 z"
         id="path727" />
      <path
         d="m 452.51599,-5.6223981 q -0.64493,0 -0.97152,0.6366539 -0.32246,0.6325198 -0.32246,1.9058276 0,1.2691737 0.32246,1.9058276 0.32659,0.63251977 0.97152,0.63251977 0.64905,0 0.97151,-0.63251977 0.3266,-0.6366539 0.3266,-1.9058276 0,-1.2733078 -0.3266,-1.9058276 -0.32246,-0.6366539 -0.97151,-0.6366539 z m 0,-0.6614586 q 1.03766,0 1.58336,0.8226892 0.54984,0.818555 0.54984,2.3812509 0,1.5585618 -0.54984,2.38125096 -0.5457,0.81855501 -1.58336,0.81855501 -1.03767,0 -1.5875,-0.81855501 -0.54571,-0.82268916 -0.54571,-2.38125096 0,-1.5626959 0.54571,-2.3812509 0.54983,-0.8226892 1.5875,-0.8226892 z"
         id="path729" />
      <path
         d="m 458.90733,-0.70279976 h 1.36426 V -5.4115581 l -1.48414,0.2976563 v -0.7606774 l 1.47587,-0.2976563 h 0.8351 v 5.46943574 h 1.36425 V 0 h -3.55534 z"
         id="path731" />
      <path
         d="m 468.58114,-5.6223981 q -0.64492,0 -0.97152,0.6366539 -0.32246,0.6325198 -0.32246,1.9058276 0,1.2691737 0.32246,1.9058276 0.3266,0.63251977 0.97152,0.63251977 0.64906,0 0.97152,-0.63251977 0.32659,-0.6366539 0.32659,-1.9058276 0,-1.2733078 -0.32659,-1.9058276 -0.32246,-0.6366539 -0.97152,-0.6366539 z m 0,-0.6614586 q 1.03766,0 1.58337,0.8226892 0.54984,0.818555 0.54984,2.3812509 0,1.5585618 -0.54984,2.38125096 -0.54571,0.81855501 -1.58337,0.81855501 -1.03766,0 -1.5875,-0.81855501 -0.5457,-0.82268916 -0.5457,-2.38125096 0,-1.5626959 0.5457,-2.3812509 0.54984,-0.8226892 1.5875,-0.8226892 z"
         id="path733" />
      <path
         d="m 476.61373,-5.6223981 q -0.64492,0 -0.97151,0.6366539 -0.32246,0.6325198 -0.32246,1.9058276 0,1.2691737 0.32246,1.9058276 0.32659,0.63251977 0.97151,0.63251977 0.64906,0 0.97152,-0.63251977 0.3266,-0.6366539 0.3266,-1.9058276 0,-1.2733078 -0.3266,-1.9058276 -0.32246,-0.6366539 -0.97152,-0.6366539 z m 0,-0.6614586 q 1.03767,0 1.58337,0.8226892 0.54984,0.818555 0.54984,2.3812509 0,1.5585618 -0.54984,2.38125096 -0.5457,0.81855501 -1.58337,0.81855501 -1.03766,0 -1.5875,-0.81855501 -0.5457,-0.82268916 -0.5457,-2.38125096 0,-1.5626959 0.5457,-2.3812509 0.54984,-0.8226892 1.5875,-0.8226892 z"
         id="path735" />
    </g>
    <g
       aria-label="01011011101011010101010101010101010101010101010100101010010"
       transform="translate(1.9031209,-55.457116)"
       id="text583"
       style="font-size:8.46667px;line-height:1.25;letter-spacing:1.32292px;stroke-width:0.264583">
      <path
         d="m -7.24279,147.449 q -0.2138551,-0.60844 -0.922786,-0.70544 -0.7036598,-0.0945 -1.904925,0.32775 -1.197364,0.42086 -1.691069,0.93619 -0.488434,0.51786 -0.274579,1.12629 0.215226,0.61233 0.918886,0.70681 0.708931,0.097 1.9062954,-0.32385 1.2012649,-0.42223 1.6896987,-0.94009 0.4937048,-0.51533 0.2784789,-1.12766 z m 0.6240337,-0.21934 q 0.3440874,0.97895 -0.2511002,1.76658 -0.5899165,0.79016 -2.0641962,1.30835 -1.4703793,0.51681 -2.4288463,0.27089 -0.953196,-0.2434 -1.297284,-1.22235 -0.344087,-0.97895 0.24583,-1.76911 0.595187,-0.78763 2.065567,-1.30445 1.4742791,-0.51819 2.4274752,-0.27479 0.9584671,0.24593 1.3025545,1.22488 z"
         id="path738" />
      <path
         d="m -10.148323,153.91014 0.474575,1.27906 4.4146742,-1.63801 -0.7953468,-1.28791 0.7131694,-0.26461 0.7924707,1.28016 0.2904976,0.78293 -5.1278436,1.90262 0.4745754,1.27905 -0.6589066,0.24448 -1.2367723,-3.33329 z"
         id="path740" />
      <path
         d="m -2.6136286,159.94642 q -0.2322689,-0.60165 -0.9438231,-0.67704 -0.7062085,-0.073 -1.8940701,0.38557 -1.1840049,0.45709 -1.6618012,0.9872 -0.4724507,0.53248 -0.2401818,1.13413 0.2337578,0.6055 0.9399663,0.67852 0.7115542,0.0754 1.8955591,-0.38171 1.1878615,-0.45858 1.6603123,-0.99106 0.4777963,-0.53011 0.2440385,-1.13561 z m 0.6170709,-0.23823 q 0.3737147,0.96803 -0.197232,1.77341 -0.5656012,0.80774 -2.0234313,1.37055 -1.4539734,0.56131 -2.4194795,0.34466 -0.9601605,-0.21428 -1.3338753,-1.18231 -0.3737147,-0.96803 0.1918865,-1.77577 0.5709467,-0.80538 2.0249201,-1.36669 1.4578301,-0.56281 2.4179907,-0.34853 0.9655061,0.21665 1.3392208,1.18468 z"
         id="path742" />
      <path
         d="m -5.3590344,166.43612 0.5067422,1.26665 4.37187657,-1.74902 -0.82763507,-1.26741 0.70625571,-0.28255 0.82456393,1.25973 0.31018769,0.77535 -5.07813223,2.03157 0.5067422,1.26666 -0.6525189,0.26105 -1.320601,-3.30098 z"
         id="path744" />
      <path
         d="m -2.8519193,172.6485 0.5216501,1.26059 4.3509385,-1.80048 -0.8425294,-1.25756 0.7028733,-0.29085 0.8393679,1.24991 0.319313,0.77163 -5.0538118,2.09134 0.5216501,1.26059 -0.6493938,0.26873 -1.3594517,-3.28517 z"
         id="path746" />
      <path
         d="m 4.8990823,178.41056 q -0.2536351,-0.59296 -0.96743,-0.64285 -0.708368,-0.0477 -1.879071,0.45305 -1.16690196,0.49914 -1.62543589,1.046 -0.45310707,0.54903 -0.19947196,1.14198 0.25526097,0.59676 0.96362905,0.64448 0.7137949,0.0499 1.8806968,-0.44925 1.170703,-0.50076 1.6238101,-1.0498 0.4585339,-0.54686 0.2032729,-1.14361 z m 0.6081574,-0.26014 q 0.4080924,0.95404 -0.133689,1.77932 -0.5363546,0.82745 -1.9731264,1.44203 -1.4329708,0.61295 -2.40560677,0.43097 -0.96720908,-0.17981 -1.37530146,-1.13386 -0.40809239,-0.95404 0.12826218,-1.7815 0.54178142,-0.82527 1.97475225,-1.43822 1.4367718,-0.61458 2.4039809,-0.43477 0.9726359,0.18198 1.3807283,1.13603 z"
         id="path748" />
      <path
         d="m 2.3875255,184.99641 0.5516208,1.24776 4.3066768,-1.90393 -0.872336,-1.23706 0.695723,-0.30757 0.8689929,1.2295 0.3376588,0.76378 -5.0023999,2.2115 0.5516209,1.24777 -0.6427876,0.28416 -1.4375573,-3.25174 z"
         id="path750" />
      <path
         d="m 5.1163816,191.11739 0.5671095,1.2408 4.2826442,-1.95738 -0.8876666,-1.22611 0.6918407,-0.31621 0.8842296,1.21859 0.34714,0.75952 -4.9744852,2.27359 0.5671095,1.24081 -0.6392007,0.29214 -1.4779216,-3.2336 z"
         id="path752" />
      <path
         d="m 7.9221489,197.20395 0.5831782,1.23333 4.2568589,-2.01285 -0.903517,-1.21447 0.687675,-0.32517 0.899983,1.207 0.356975,0.75495 -4.9445336,2.33801 0.5831781,1.23333 -0.635352,0.30043 -1.5197976,-3.21414 z"
         id="path754" />
      <path
         d="m 15.946327,202.56046 q -0.283629,-0.57921 -0.999042,-0.59253 -0.709881,-0.0114 -1.853441,0.54856 -1.139846,0.55817 -1.569811,1.12776 -0.424434,0.5715 -0.140804,1.1507 0.285448,0.58292 0.995329,0.59435 0.715413,0.0133 1.855259,-0.54485 1.143559,-0.55999 1.567993,-1.13148 0.429965,-0.56959 0.144517,-1.15251 z m 0.594057,-0.2909 q 0.456353,0.93192 -0.04251,1.78383 -0.493333,0.8538 -1.896792,1.54106 -1.399746,0.68543 -2.380417,0.55343 -0.975139,-0.1301 -1.431492,-1.06203 -0.456353,-0.93192 0.03698,-1.78572 0.498864,-0.85191 1.89861,-1.53735 1.403459,-0.68726 2.378599,-0.55715 0.98067,0.132 1.437023,1.06393 z"
         id="path756" />
      <path
         d="m 13.774849,209.25757 0.61768,1.21642 4.198484,-2.13193 -0.937361,-1.18855 0.678245,-0.34441 0.933618,1.18118 0.378095,0.7446 -4.87673,2.47633 0.61768,1.21642 -0.62664,0.3182 -1.609711,-3.17006 z"
         id="path758" />
      <path
         d="m 21.947355,214.37475 q -0.300861,-0.57045 -1.016351,-0.56232 -0.709906,0.01 -1.836168,0.60386 -1.122606,0.59207 -1.535307,1.1743 -0.407116,0.58396 -0.106255,1.1544 0.30279,0.5741 1.012695,0.56425 0.715491,-0.008 1.838097,-0.60021 1.126262,-0.594 1.533378,-1.17796 0.412701,-0.58222 0.109911,-1.15632 z m 0.585072,-0.30858 q 0.484077,0.91783 0.01097,1.78431 -0.467522,0.8682 -1.849754,1.59721 -1.378575,0.72708 -2.362761,0.62453 -0.9786,-0.10082 -1.462678,-1.01865 -0.484078,-0.91784 -0.01656,-1.78604 0.473108,-0.86647 1.851683,-1.59355 1.382231,-0.72901 2.360832,-0.62819 0.984186,0.10255 1.468264,1.02038 z"
         id="path760" />
      <path
         d="m 19.979396,221.13015 0.656433,1.19595 4.127839,-2.26569 -0.975054,-1.15783 0.666832,-0.36601 0.971076,1.15058 0.401817,0.73206 -4.794671,2.6317 0.656433,1.19595 -0.616095,0.33817 -1.710706,-3.11672 z"
         id="path762" />
      <path
         d="m 23.227797,226.9868 0.677881,1.18392 4.086336,-2.33971 -0.995762,-1.14007 0.660128,-0.37797 0.991654,1.13289 0.414945,0.72471 -4.746465,2.71768 0.67788,1.18393 -0.609901,0.34921 -1.766597,-3.08538 z"
         id="path764" />
      <path
         d="m 31.646639,231.66175 q -0.331388,-0.55327 -1.045382,-0.50631 -0.708323,0.0484 -1.800675,0.70266 -1.088805,0.65216 -1.469286,1.25593 -0.374811,0.6052 -0.04342,1.15847 0.333513,0.55681 1.041836,0.50843 0.713994,-0.047 1.802799,-0.69911 1.092351,-0.65428 1.467162,-1.25948 0.380481,-0.60377 0.04697,-1.16059 z m 0.567455,-0.33988 q 0.533195,0.89019 0.107828,1.78107 -0.419696,0.89231 -1.760309,1.69529 -1.337067,0.80085 -2.325369,0.75189 -0.982631,-0.0475 -1.515826,-0.93774 -0.533195,-0.89019 -0.113499,-1.7825 0.425367,-0.89088 1.762434,-1.69174 1.340613,-0.80298 2.323244,-0.75543 0.988302,0.049 1.521497,0.93916 z"
         id="path766" />
      <path
         d="m 30.052995,238.50668 0.72611,1.15498 3.986411,-2.50618 -1.041914,-1.09805 0.643986,-0.40486 1.037513,1.09105 0.444467,0.70698 -4.630396,2.91104 0.72611,1.15498 -0.594987,0.37405 -1.892286,-3.00993 z"
         id="path768" />
      <path
         d="m 38.655782,242.80334 q -0.356198,-0.53763 -1.067319,-0.45827 -0.705391,0.0805 -1.76687,0.7838 -1.058031,0.70098 -1.410672,1.32142 -0.34691,0.62161 0.0093,1.15924 0.358481,0.54108 1.063873,0.46055 0.711121,-0.0794 1.769152,-0.78035 1.061478,-0.70326 1.408389,-1.32487 0.35264,-0.62044 -0.0058,-1.16152 z m 0.551417,-0.36533 q 0.573112,0.86503 0.188685,1.77433 -0.378697,0.91046 -1.681421,1.77356 -1.299276,0.86081 -2.288783,0.85682 -0.983776,-0.003 -1.556889,-0.86786 -0.573113,-0.86503 -0.194415,-1.77549 0.384427,-0.9093 1.683704,-1.77011 1.302723,-0.8631 2.2865,-0.86027 0.989506,0.004 1.562619,0.86902 z"
         id="path770" />
      <path
         d="m 37.379736,249.70649 0.78355,1.1168 3.854665,-2.70443 -1.096074,-1.04399 0.622703,-0.43689 1.091325,1.03722 0.479627,0.68362 -4.477368,3.14132 0.78355,1.11681 -0.575323,0.40364 -2.041978,-2.91046 z"
         id="path772" />
      <path
         d="m 46.183399,253.52273 q -0.386092,-0.51658 -1.091573,-0.39704 -0.699694,0.12037 -1.719613,0.88266 -1.016607,0.75981 -1.33352,1.39924 -0.311127,0.64027 0.07496,1.15685 0.388568,0.5199 1.088262,0.39952 0.70548,-0.11954 1.722088,-0.87935 1.019918,-0.76228 1.331045,-1.40255 0.316914,-0.63944 -0.07165,-1.15933 z m 0.529828,-0.39599 q 0.621213,0.83116 0.288933,1.76079 -0.326494,0.93046 -1.578212,1.86599 -1.248407,0.93306 -2.236549,0.98515 -0.982356,0.0529 -1.603569,-0.77823 -0.621212,-0.83117 -0.294719,-1.76163 0.33228,-0.92962 1.580687,-1.86268 1.251719,-0.93553 2.234074,-0.98846 0.988142,-0.0521 1.609355,0.77907 z"
         id="path774" />
      <path
         d="m 45.307162,260.4766 0.853566,1.06425 3.673271,-2.9461 -1.160777,-0.97154 0.5934,-0.47593 1.155603,0.96509 0.522486,0.65145 -4.26667,3.42203 0.853566,1.06425 -0.548249,0.43971 -2.224446,-2.77349 z"
         id="path776" />
      <path
         d="m 54.325915,263.66174 q -0.422935,-0.48688 -1.11775,-0.31592 -0.688983,0.17136 -1.650257,1.00638 -0.958153,0.83231 -1.227323,1.49326 -0.263338,0.66137 0.159597,1.14825 0.425645,0.49 1.114628,0.31863 0.694815,-0.17095 1.652968,-1.00326 0.961274,-0.83502 1.224612,-1.49639 0.26917,-0.66095 -0.156475,-1.15095 z m 0.499363,-0.43378 q 0.68049,0.78338 0.417275,1.73487 -0.257384,0.95189 -1.437129,1.9767 -1.176625,1.02209 -2.158286,1.1465 -0.975829,0.12483 -1.65632,-0.65855 -0.68049,-0.78337 -0.423107,-1.73527 0.263216,-0.95149 1.43984,-1.97358 1.179746,-1.0248 2.155575,-1.14963 0.981661,-0.12441 1.662152,0.65896 z"
         id="path778" />
      <path
         d="m 53.96901,270.64272 0.940713,0.98806 3.4103,-3.24689 -1.238958,-0.86964 0.550918,-0.52452 1.233256,0.86365 0.575831,0.60482 -3.961218,3.7714 0.940713,0.98806 -0.509,0.48461 -2.451554,-2.57494 z"
         id="path780" />
      <path
         d="m 63.199807,272.96403 q -0.469119,-0.44256 -1.143563,-0.20357 -0.668601,0.23883 -1.542359,1.16503 -0.87092,0.9232 -1.073239,1.60758 -0.196476,0.68421 0.272642,1.12677 0.472126,0.44539 1.140727,0.20656 0.674445,-0.23899 1.545365,-1.16219 0.873757,-0.9262 1.070233,-1.61041 0.202319,-0.68438 -0.269806,-1.12977 z m 0.4539,-0.48115 q 0.754799,0.71205 0.587207,1.68495 -0.161748,0.97272 -1.234086,2.10943 -1.069501,1.1337 -2.033993,1.35483 -0.958647,0.22095 -1.713446,-0.49111 -0.7548,-0.71205 -0.593052,-1.68478 0.167592,-0.97289 1.237093,-2.10659 1.072339,-1.13671 2.030986,-1.35766 0.964491,-0.22113 1.719291,0.49093 z"
         id="path782" />
      <path
         d="m 63.545765,279.91693 1.050135,0.87087 3.005829,-3.62456 -1.332428,-0.71828 0.485578,-0.58553 1.326063,0.71301 0.642809,0.53308 -3.491406,4.21008 1.050134,0.87087 -0.448631,0.54098 -2.736714,-2.26954 z"
         id="path784" />
      <path
         d="m 72.92391,281.00364 q -0.526607,-0.37231 -1.160816,-0.041 -0.628447,0.33033 -1.363506,1.37004 -0.732673,1.03634 -0.836899,1.74235 -0.09846,0.70501 0.428144,1.07732 0.529983,0.37469 1.15843,0.0444 0.634209,-0.33132 1.366881,-1.36766 0.735059,-1.03971 0.833523,-1.74473 0.104226,-0.706 -0.425757,-1.08069 z m 0.381849,-0.54011 q 0.847297,0.59902 0.817964,1.58581 -0.02357,0.9858 -0.92569,2.26181 -0.899731,1.27263 -1.823622,1.62698 -0.918129,0.35336 -1.765427,-0.24566 -0.847298,-0.59903 -0.823726,-1.58483 0.02933,-0.98678 0.929065,-2.25942 0.902118,-1.27601 1.820247,-1.62937 0.923891,-0.35435 1.771189,0.24468 z"
         id="path786" />
      <path
         d="m 74.249931,287.79053 1.182556,0.68027 2.347946,-4.08162 -1.4349,-0.48203 0.379299,-0.65936 1.427733,0.47791 0.723868,0.4164 -2.727245,4.74098 1.182557,0.68026 -0.35044,0.6092 -3.081814,-1.77281 z"
         id="path788" />
      <path
         d="m 83.542458,287.08263 q -0.591805,-0.25631 -1.14452,0.19811 -0.547278,0.45227 -1.053317,1.62071 -0.504396,1.16464 -0.461513,1.87701 0.04832,0.71022 0.640123,0.96652 0.595598,0.25795 1.142876,-0.19432 0.552715,-0.45442 1.057111,-1.61906 0.506039,-1.16844 0.45772,-1.87865 -0.04288,-0.71237 -0.63848,-0.97032 z m 0.262877,-0.60698 q 0.952197,0.41239 1.126001,1.38419 0.17924,0.96965 -0.441807,2.40364 -0.619405,1.43019 -1.45091,1.96661 -0.826068,0.53426 -1.778265,0.12187 -0.952198,-0.41239 -1.131438,-1.38204 -0.173804,-0.9718 0.445601,-2.402 0.621048,-1.43398 1.447116,-1.96825 0.831504,-0.53641 1.783702,-0.12402 z"
         id="path790" />
      <path
         d="m 86.230071,293.37998 1.313714,0.36791 1.269843,-4.53431 -1.509432,-0.11361 0.205137,-0.73249 1.50147,0.11138 0.804152,0.2252 -1.47498,5.2668 1.313714,0.36791 -0.189529,0.67676 -3.423618,-0.95879 z"
         id="path792" />
      <path
         d="m 94.847121,290.22564 q -0.640559,-0.0749 -1.038872,0.51954 -0.393727,0.5908 -0.54158,1.85549 -0.147374,1.26059 0.09898,1.93038 0.250939,0.66616 0.891498,0.74105 0.644666,0.0754 1.038393,-0.51543 0.398312,-0.59442 0.545686,-1.85501 0.147854,-1.2647 -0.103085,-1.93086 -0.246353,-0.66979 -0.891019,-0.74516 z m 0.07681,-0.65698 q 1.030644,0.12049 1.477127,1.00098 0.451069,0.87686 0.269613,2.42899 -0.180977,1.54802 -0.822624,2.30129 -0.637061,0.74966 -1.667705,0.62916 -1.030644,-0.12049 -1.481713,-0.99735 -0.446483,-0.88049 -0.265506,-2.42851 0.181457,-1.55212 0.818518,-2.30178 0.641646,-0.75327 1.67229,-0.63278 z"
         id="path794" />
      <path
         d="m 99.216215,295.41116 1.362345,-0.0723 -0.24965,-4.70214 -1.466281,0.37593 -0.04033,-0.75961 1.45802,-0.37549 0.83392,-0.0443 0.28998,5.46174 1.36234,-0.0723 0.0373,0.70181 -3.550344,0.1885 z"
         id="path796" />
      <path
         d="m 106.32713,289.62442 q -0.62993,0.13827 -0.81243,0.83014 -0.17935,0.68694 0.0936,1.93064 0.27211,1.23966 0.72357,1.79238 0.45461,0.54779 1.08453,0.40952 0.63397,-0.13916 0.81332,-0.82611 0.1825,-0.69187 -0.0896,-1.93153 -0.27299,-1.2437 -0.72761,-1.79149 -0.45146,-0.55271 -1.08542,-0.41355 z m -0.14182,-0.64608 q 1.01354,-0.22248 1.72293,0.46408 0.71255,0.68164 1.04759,2.208 0.33416,1.52232 -0.0265,2.44376 -0.35752,0.91652 -1.37105,1.13899 -1.01353,0.22248 -1.72608,-0.45916 -0.7094,-0.68656 -1.04355,-2.20888 -0.33504,-1.52636 0.0225,-2.44288 0.36067,-0.92144 1.3742,-1.14391 z"
         id="path798" />
      <path
         d="m 112.17194,293.11673 1.27675,-0.48074 -1.65928,-4.40672 -1.28406,0.80154 -0.26805,-0.71188 1.27633,-0.79864 0.78152,-0.29427 1.92733,5.11861 1.27675,-0.48074 0.24765,0.65772 -3.32729,1.25284 z"
         id="path800" />
      <path
         d="m 117.46433,285.45877 q -0.57153,0.2988 -0.56599,1.01431 0.007,0.70994 0.59722,1.83834 0.58801,1.12474 1.16874,1.53955 0.58248,0.40922 1.15401,0.11042 0.57519,-0.30071 0.56791,-1.01064 -0.006,-0.71552 -0.59356,-1.84026 -0.58993,-1.1284 -1.17241,-1.53763 -0.58073,-0.4148 -1.15592,-0.11409 z m -0.30646,-0.58618 q 0.91958,-0.48076 1.78433,-0.005 0.86651,0.47066 1.59052,1.85552 0.72209,1.38119 0.61598,2.365 -0.10436,0.97823 -1.02393,1.45899 -0.91958,0.48075 -1.78608,0.0101 -0.86476,-0.47623 -1.58685,-1.85743 -0.72401,-1.38486 -0.61965,-2.36309 0.10611,-0.9838 1.02568,-1.46456 z"
         id="path802" />
      <path
         d="m 124.08441,287.34271 1.13947,-0.7502 -2.58934,-3.9329 -1.07593,1.06474 -0.41829,-0.63534 1.06902,-1.0602 0.69749,-0.45922 3.00764,4.56825 1.13947,-0.75021 0.38647,0.587 -2.96953,1.95508 z"
         id="path804" />
      <path
         d="m 127.81084,278.67618 q -0.50751,0.39794 -0.37167,1.10047 0.13654,0.69672 0.92222,1.69872 0.78314,0.99875 1.42973,1.30078 0.6473,0.29623 1.15481,-0.10172 0.51076,-0.40049 0.37423,-1.09722 -0.13584,-0.70252 -0.91897,-1.70127 -0.78569,-1.002 -1.43299,-1.29823 -0.6466,-0.30203 -1.15736,0.0985 z m -0.40815,-0.52052 q 0.81657,-0.64029 1.75364,-0.32961 0.93776,0.30487 1.90201,1.5346 0.9617,1.22648 1.03665,2.21315 0.0757,0.98087 -0.74091,1.62115 -0.81657,0.64028 -1.75434,0.33541 -0.93706,-0.31067 -1.89876,-1.53715 -0.96425,-1.22973 -1.0399,-2.2106 -0.075,-0.98667 0.74161,-1.62695 z"
         id="path806" />
      <path
         d="m 134.71877,279.35253 1.01346,-0.91329 -3.15224,-3.49797 -0.90326,1.21467 -0.50923,-0.56508 0.89711,-1.20913 0.62036,-0.55905 3.66147,4.06305 1.01346,-0.91329 0.47049,0.52208 -2.64114,2.3801 z"
         id="path808" />
      <path
         d="m 137.26007,270.18412 q -0.4536,0.45844 -0.23074,1.13839 0.22283,0.6741 1.12797,1.56966 0.9022,0.89266 1.58156,1.11122 0.67934,0.21272 1.13294,-0.24573 0.45651,-0.46139 0.23368,-1.13548 -0.22287,-0.67995 -1.12506,-1.57261 -0.90514,-0.89556 -1.58448,-1.10828 -0.67937,-0.21856 -1.13587,0.24283 z m -0.4702,-0.46523 q 0.72982,-0.73763 1.69845,-0.54692 0.9686,0.18487 2.07945,1.28397 1.10791,1.0962 1.306,2.06568 0.19806,0.96364 -0.53177,1.70127 -0.72983,0.73763 -1.69842,0.55276 -0.96863,-0.19071 -2.07654,-1.28691 -1.11085,-1.0991 -1.30891,-2.06274 -0.19809,-0.96948 0.53174,-1.70711 z"
         id="path810" />
      <path
         d="m 144.23498,270.00441 0.91145,-1.01511 -3.50369,-3.14588 -0.77007,1.30319 -0.566,-0.50821 0.76454,-1.29703 0.55791,-0.62137 4.0697,3.65407 0.91145,-1.01511 0.52294,0.46953 -2.37529,2.64546 z"
         id="path812" />
      <path
         d="m 145.89312,260.58622 q -0.4106,0.49733 -0.12757,1.15451 0.28247,0.65137 1.26438,1.46202 0.97872,0.80803 1.67497,0.96469 0.6957,0.15085 1.10629,-0.34648 0.41322,-0.50052 0.13075,-1.15188 -0.28302,-0.65719 -1.26174,-1.46521 -0.98191,-0.81066 -1.67761,-0.96151 -0.69625,-0.15666 -1.10947,0.34386 z m -0.51009,-0.42112 q 0.66064,-0.80019 1.64248,-0.69724 0.98128,0.0971 2.18635,1.09203 1.20189,0.99227 1.48624,1.94004 0.28381,0.94196 -0.37683,1.74215 -0.66063,0.80019 -1.64192,0.70306 -0.98184,-0.10295 -2.18372,-1.09522 -1.20507,-0.9949 -1.48887,-1.93685 -0.28436,-0.94778 0.37627,-1.74797 z"
         id="path814" />
      <path
         d="m 152.847,259.78896 0.83019,-1.08258 -3.73655,-2.86541 -0.66695,1.35885 -0.60362,-0.46289 0.66191,-1.35229 0.50818,-0.66268 4.34017,3.32831 0.83019,-1.08259 0.5577,0.42768 -2.16352,2.82128 z"
         id="path816" />
      <path
         d="m 153.83297,250.24503 q -0.37615,0.52387 -0.0495,1.16049 0.32572,0.63085 1.36002,1.37349 1.03095,0.74024 1.73618,0.84963 0.70427,0.10362 1.08042,-0.42025 0.37856,-0.52722 0.0528,-1.15807 -0.32667,-0.63662 -1.35762,-1.37686 -1.0343,-0.74264 -1.73858,-0.84626 -0.70523,-0.10939 -1.08378,0.41783 z m -0.5373,-0.38579 q 0.60521,-0.84289 1.59175,-0.80634 0.9856,0.0308 2.25498,0.94222 1.26601,0.90902 1.61359,1.83548 0.34663,0.92069 -0.25858,1.76358 -0.60521,0.8429 -1.59081,0.81211 -0.98654,-0.0366 -2.25256,-0.94558 -1.26937,-0.91143 -1.61601,-1.83212 -0.34757,-0.92646 0.25764,-1.76935 z"
         id="path818" />
      <path
         d="m 160.73308,248.98454 0.76451,-1.12992 -3.89994,-2.63873 -0.58517,1.39602 -0.63001,-0.42627 0.58053,-1.38918 0.46798,-0.69164 4.52995,3.065 0.76452,-1.12992 0.58208,0.39384 -1.99237,2.94464 z"
         id="path820" />
      <path
         d="m 161.19047,239.38029 q -0.34801,0.54297 0.0118,1.16148 0.35852,0.6128 1.43054,1.29989 1.06853,0.68486 1.77854,0.75692 0.70876,0.0663 1.05677,-0.47662 0.35024,-0.54645 -0.008,-1.15924 -0.35978,-0.61852 -1.42831,-1.30338 -1.07202,-0.68709 -1.78078,-0.75344 -0.71001,-0.0721 -1.06025,0.47439 z m -0.55689,-0.35693 q 0.55993,-0.87362 1.54703,-0.88912 0.98585,-0.0212 2.30151,0.82203 1.31218,0.84102 1.70811,1.74786 0.39469,0.90114 -0.16525,1.77476 -0.55993,0.87363 -1.54578,0.89484 -0.9871,0.0155 -2.29928,-0.82551 -1.31566,-0.84325 -1.71034,-1.74439 -0.39594,-0.90684 0.164,-1.78047 z"
         id="path822" />
      <path
         d="m 168.02526,237.75956 0.71025,-1.16479 -4.02031,-2.45144 -0.51853,1.42212 -0.64946,-0.39601 0.51422,-1.41506 0.43476,-0.713 4.66977,2.84745 0.71025,-1.16479 0.60005,0.36588 -1.85096,3.03553 z"
         id="path824" />
      <path
         d="m 168.05445,228.13061 q -0.32449,0.55735 0.0614,1.15992 0.38439,0.59691 1.48479,1.23756 1.09683,0.63857 1.80927,0.68022 0.71095,0.036 1.03543,-0.52135 0.32657,-0.56092 -0.0578,-1.15783 -0.38588,-0.60257 -1.4827,-1.24114 -1.10041,-0.64065 -1.81136,-0.67665 -0.71244,-0.0417 -1.039,0.51927 z m -0.57164,-0.3328 q 0.52209,-0.89676 1.50762,-0.95444 0.98405,-0.0633 2.33454,0.72293 1.34692,0.78417 1.78125,1.67327 0.43284,0.88344 -0.0893,1.7802 -0.52209,0.89675 -1.50613,0.96008 -0.98554,0.0577 -2.33246,-0.72649 -1.35049,-0.78625 -1.78333,-1.6697 -0.43433,-0.8891 0.0878,-1.78585 z"
         id="path826" />
      <path
         d="m 174.82102,226.22053 0.66436,-1.19157 -4.11272,-2.29303 -0.46276,1.44123 -0.66439,-0.37042 0.45873,-1.43401 0.40667,-0.72939 4.7771,2.66346 0.66436,-1.19157 0.61384,0.34224 -1.73135,3.1053 z"
         id="path828" />
      <path
         d="m 174.49364,216.58692 q -0.30436,0.56858 0.10281,1.15698 0.40547,0.5828 1.52806,1.18371 1.11895,0.59896 1.83243,0.61512 0.71178,0.0106 1.01614,-0.55802 0.30631,-0.57223 -0.0992,-1.15503 -0.40717,-0.58839 -1.52612,-1.18735 -1.12259,-0.60091 -1.83437,-0.61148 -0.71348,-0.0162 -1.01979,0.55607 z m -0.58317,-0.31217 q 0.48971,-0.91484 1.47256,-1.0077 0.98115,-0.0985 2.35888,0.63903 1.37408,0.73554 1.83991,1.60854 0.46413,0.86742 -0.0256,1.78226 -0.48971,0.91484 -1.47086,1.01329 -0.98285,0.0929 -2.35693,-0.64267 -1.37773,-0.73748 -1.84186,-1.6049 -0.46583,-0.87301 0.0239,-1.78785 z"
         id="path830" />
      <path
         d="m 181.19305,214.43658 0.62464,-1.21286 -4.18621,-2.15594 -0.4149,1.45573 -0.67627,-0.34828 0.41112,-1.44838 0.38235,-0.74242 4.86247,2.50422 0.62464,-1.21286 0.6248,0.32178 -1.62783,3.16079 z"
         id="path832" />
      <path
         d="m 180.56014,204.81173 q -0.28673,0.57767 0.13833,1.15327 0.4232,0.57006 1.56373,1.13618 1.13683,0.56428 1.85047,0.5585 0.71177,-0.0113 0.99851,-0.58899 0.28857,-0.58138 -0.13463,-1.15144 -0.42506,-0.57559 -1.56189,-1.13988 -1.14054,-0.56612 -1.85231,-0.5548 -0.71363,0.006 -1.00221,0.58716 z m -0.59248,-0.29409 q 0.46135,-0.92946 1.44087,-1.05249 0.97767,-0.12857 2.37741,0.56621 1.39605,0.69295 1.88849,1.55122 0.49058,0.85274 0.0292,1.7822 -0.46135,0.92946 -1.43901,1.05803 -0.97953,0.12303 -2.37557,-0.56991 -1.39975,-0.69479 -1.89033,-1.54752 -0.49244,-0.85828 -0.0311,-1.78774 z"
         id="path834" />
      <path
         d="m 183.4667,198.8506 q -0.27864,0.58163 0.15442,1.15123 0.43111,0.5641 1.57944,1.11424 1.1446,0.54835 1.85809,0.53261 0.71154,-0.0213 0.99018,-0.60288 0.28043,-0.58535 -0.15069,-1.14944 -0.43305,-0.56961 -1.57765,-1.11796 -1.14833,-0.55014 -1.85988,-0.52889 -0.71348,0.0157 -0.99391,0.60109 z m -0.59653,-0.28578 q 0.44832,-0.93582 1.42604,-1.07251 0.97577,-0.14221 2.38508,0.53296 1.40559,0.67339 1.90997,1.5247 0.50243,0.8458 0.0541,1.78162 -0.44833,0.93581 -1.4241,1.07802 -0.97772,0.13669 -2.3833,-0.53669 -1.40931,-0.67517 -1.91175,-1.52097 -0.50438,-0.85132 -0.056,-1.78713 z"
         id="path836" />
      <path
         d="m 190.06854,196.4034 0.5731,-1.23805 -4.27312,-1.97808 -0.35335,1.47188 -0.69031,-0.31955 0.34988,-1.46438 0.35081,-0.75783 4.96343,2.29763 0.5731,-1.23804 0.63778,0.29524 -1.49354,3.22641 z"
         id="path838" />
      <path
         d="m 189.04338,186.80632 q -0.26351,0.58864 0.18414,1.14685 0.44556,0.55276 1.60774,1.07301 1.1584,0.51856 1.87124,0.48437 0.71076,-0.0397 0.97426,-0.62829 0.26519,-0.59241 -0.18037,-1.14516 -0.44765,-0.55822 -1.60605,-1.07678 -1.16217,-0.52025 -1.87293,-0.4806 -0.71284,0.0342 -0.97803,0.6266 z m -0.60373,-0.27026 q 0.42397,-0.9471 1.39782,-1.10903 0.97177,-0.16741 2.39808,0.47108 1.42253,0.63681 1.94876,1.47479 0.52415,0.83252 0.10018,1.77962 -0.42397,0.9471 -1.39574,1.1145 -0.97385,0.16194 -2.39638,-0.47486 -1.42631,-0.63849 -1.95046,-1.47102 -0.52623,-0.83798 -0.10226,-1.78508 z"
         id="path840" />
      <path
         d="m 195.58152,184.19011 0.54219,-1.25189 -4.32093,-1.87137 -0.31669,1.4802 -0.69802,-0.30231 0.3134,-1.47261 0.33189,-0.76631 5.01895,2.17368 0.54218,-1.25189 0.64492,0.27931 -1.41298,3.2625 z"
         id="path842" />
      <path
         d="m 194.32799,174.60588 q -0.24925,0.59481 0.21171,1.14209 0.45874,0.54186 1.63311,1.03397 1.17056,0.49051 1.88237,0.43915 0.70959,-0.0568 0.95884,-0.65157 0.25085,-0.59862 -0.2079,-1.14048 -0.46096,-0.54727 -1.63152,-1.03778 -1.17436,-0.49211 -1.88396,-0.43535 -0.71181,0.0514 -0.96265,0.64997 z m -0.61007,-0.25564 q 0.40104,-0.95703 1.37071,-1.14238 0.96745,-0.19076 2.40872,0.41319 1.43746,0.60236 1.98372,1.42742 0.54405,0.81966 0.14301,1.77669 -0.40103,0.95704 -1.36848,1.1478 -0.96967,0.18534 -2.40713,-0.41701 -1.44127,-0.60395 -1.98532,-1.42361 -0.54626,-0.82506 -0.14523,-1.7821 z"
         id="path844" />
      <path
         d="m 200.80048,171.83722 0.51241,-1.26437 -4.36399,-1.7686 -0.28158,1.48728 -0.70499,-0.28571 0.27848,-1.47962 0.31366,-0.77395 5.06898,2.05431 0.51241,-1.26437 0.65134,0.26397 -1.33538,3.29503 z"
         id="path846" />
      <path
         d="m 199.31875,162.29015 q -0.23506,0.60055 0.23876,1.13673 0.47147,0.53083 1.65719,0.99493 1.18186,0.46259 1.89226,0.39436 0.70804,-0.0736 0.94311,-0.67414 0.23657,-0.60441 -0.23491,-1.13523 -0.47382,-0.53618 -1.65569,-0.99877 -1.18571,-0.4641 -1.89376,-0.39052 -0.71039,0.0682 -0.94696,0.67264 z m -0.61596,-0.24109 q 0.37822,-0.96629 1.34321,-1.17459 0.96266,-0.21367 2.41785,0.35591 1.45135,0.56807 2.01704,1.37994 0.56334,0.80652 0.18513,1.7728 -0.37821,0.96628 -1.34086,1.17995 -0.965,0.2083 -2.41635,-0.35977 -1.45519,-0.56958 -2.01854,-1.37609 -0.56569,-0.81187 -0.18748,-1.77815 z"
         id="path848" />
      <path
         d="m 201.69986,156.09406 q -0.22746,0.60348 0.25309,1.13364 0.47813,0.52483 1.66961,0.97393 1.18761,0.44764 1.89708,0.37045 0.70707,-0.0825 0.93453,-0.68599 0.22893,-0.60734 -0.24921,-1.13217 -0.48055,-0.53016 -1.66816,-0.9778 -1.19148,-0.4491 -1.89854,-0.36659 -0.70947,0.0772 -0.9384,0.68453 z m -0.61895,-0.23329 q 0.36599,-0.97098 1.32828,-1.19145 0.95988,-0.22579 2.42215,0.32537 1.4584,0.54972 2.03429,1.35438 0.57348,0.79934 0.20749,1.77032 -0.36598,0.97098 -1.32586,1.19677 -0.9623,0.22047 -2.4207,-0.32924 -1.46227,-0.55117 -2.03574,-1.35051 -0.57589,-0.80467 -0.20991,-1.77564 z"
         id="path850" />
      <path
         d="m 208.06205,153.1005 0.46209,-1.28362 -4.43044,-1.59489 -0.22263,1.49724 -0.71571,-0.25765 0.21983,-1.48946 0.28285,-0.78573 5.14615,1.85254 0.46208,-1.28362 0.66126,0.23804 -1.20422,3.34519 z"
         id="path852" />
      <path
         d="m 391.85238,-5.6223981 q -0.64492,0 -0.97152,0.6366539 -0.32246,0.6325198 -0.32246,1.9058276 0,1.2691737 0.32246,1.9058276 0.3266,0.63251977 0.97152,0.63251977 0.64906,0 0.97152,-0.63251977 0.32659,-0.6366539 0.32659,-1.9058276 0,-1.2733078 -0.32659,-1.9058276 -0.32246,-0.6366539 -0.97152,-0.6366539 z m 0,-0.6614586 q 1.03766,0 1.58337,0.8226892 0.54984,0.818555 0.54984,2.3812509 0,1.5585618 -0.54984,2.38125096 -0.54571,0.81855501 -1.58337,0.81855501 -1.03766,0 -1.5875,-0.81855501 -0.5457,-0.82268916 -0.5457,-2.38125096 0,-1.5626959 0.5457,-2.3812509 0.54984,-0.8226892 1.5875,-0.8226892 z"
         id="path854" />
    </g>
    <g
       aria-label=" 0010110101101010100110101011010101010101010101011001010101010101010101010101010111"
       transform="translate(-3.355077,-76.31953)"
       id="text592"
       style="font-size:8.46667px;line-height:1.25;letter-spacing:1.32292px;stroke-width:0.264583">
      <path
         d="m -21.48427,148.12316 q -0.181396,-0.61888 -0.884209,-0.75322 -0.697682,-0.13154 -1.919586,0.2266 -1.217936,0.35698 -1.73819,0.84549 -0.515123,0.49132 -0.333727,1.11021 0.182558,0.62285 0.880241,0.75438 0.702812,0.13434 1.920749,-0.22263 1.221903,-0.35814 1.737027,-0.84946 0.520253,-0.48852 0.337695,-1.11137 z m 0.634755,-0.18605 q 0.291861,0.99578 -0.344126,1.75085 -0.630858,0.75787 -2.130467,1.1974 -1.495641,0.43838 -2.43977,0.14213 -0.938998,-0.29344 -1.230859,-1.28921 -0.291862,-0.99577 0.338996,-1.75364 0.635988,-0.75507 2.131629,-1.19344 1.499609,-0.43954 2.438607,-0.1461 0.944128,0.29624 1.23599,1.29201 z"
         id="path857" />
      <path
         d="m -19.575146,154.49126 q -0.188631,-0.61671 -0.892968,-0.74282 -0.699175,-0.12335 -1.916801,0.24907 -1.213672,0.37122 -1.72817,0.86579 -0.509335,0.49732 -0.320704,1.11404 0.189839,0.62067 0.889014,0.74403 0.704338,0.1261 1.91801,-0.24512 1.217626,-0.37242 1.726961,-0.86974 0.514498,-0.49457 0.324658,-1.11525 z m 0.632533,-0.19346 q 0.303502,0.99228 -0.323601,1.75475 -0.621939,0.76521 -2.116298,1.22227 -1.490406,0.45586 -2.437939,0.17069 -0.94237,-0.28242 -1.245871,-1.27471 -0.303502,-0.99228 0.318438,-1.75749 0.627102,-0.76247 2.117508,-1.21832 1.494359,-0.45707 2.436729,-0.17465 0.947532,0.28517 1.251034,1.27746 z"
         id="path859" />
      <path
         d="m -22.787477,160.7477 0.412164,1.30051 4.488724,-1.42259 -0.732132,-1.32487 0.725132,-0.22981 0.729634,1.31698 0.252294,0.79607 -5.213856,1.65241 0.412164,1.3005 -0.669958,0.21233 -1.074125,-3.3892 z"
         id="path861" />
      <path
         d="m -15.560443,167.16218 q -0.200662,-0.61291 -0.907333,-0.72521 -0.701454,-0.10965 -1.911559,0.28653 -1.206176,0.39489 -1.710898,0.89944 -0.499505,0.50719 -0.298843,1.1201 0.201949,0.61684 0.903404,0.72649 0.70667,0.11229 1.912846,-0.2826 1.210105,-0.39618 1.709611,-0.90337 0.504721,-0.50455 0.302772,-1.12138 z m 0.628626,-0.20581 q 0.322861,0.98615 -0.289201,1.76074 -0.606846,0.77724 -2.091975,1.26346 -1.4812,0.48493 -2.434131,0.21836 -0.947717,-0.26393 -1.270578,-1.25008 -0.322861,-0.98616 0.283986,-1.76339 0.612062,-0.77459 2.093262,-1.25953 1.485129,-0.48622 2.432845,-0.22229 0.952931,0.26657 1.275792,1.25273 z"
         id="path863" />
      <path
         d="m -18.644517,173.50256 0.436427,1.29257 4.461319,-1.50634 -0.756794,-1.31093 0.720705,-0.24334 0.754149,1.3031 0.267145,0.79121 -5.182023,1.74967 0.436426,1.29257 -0.665869,0.22483 -1.137353,-3.36852 z"
         id="path865" />
      <path
         d="m -16.48054,179.86256 0.448255,1.28852 4.447326,-1.54716 -0.768777,-1.30395 0.718444,-0.24993 0.766061,1.29613 0.274386,0.78873 -5.16577,1.79709 0.448254,1.28852 -0.66378,0.23092 -1.168179,-3.35795 z"
         id="path867" />
      <path
         d="m -9.0789379,186.07273 q -0.2175098,-0.60713 -0.9270111,-0.69987 -0.704215,-0.0902 -1.902919,0.3392 -1.194813,0.42805 -1.68541,0.94634 -0.485311,0.52079 -0.267801,1.12792 0.218904,0.61103 0.923119,0.70127 0.709501,0.0927 1.904314,-0.33531 1.198704,-0.42944 1.684015,-0.95023 0.4905972,-0.51829 0.2716931,-1.12932 z m 0.6227035,-0.22308 q 0.3499677,0.97686 -0.240473,1.76806 -0.5851545,0.79369 -2.0562916,1.32073 -1.467245,0.52565 -2.427174,0.28549 -0.954642,-0.23766 -1.30461,-1.21452 -0.349968,-0.97687 0.235187,-1.77056 0.590441,-0.7912 2.057686,-1.31684 1.471137,-0.52705 2.4257793,-0.28939 0.9599286,0.24016 1.3098963,1.21703 z"
         id="path869" />
      <path
         d="m -11.988054,192.49221 0.472141,1.27996 4.4177827,-1.6296 -0.7928948,-1.28943 0.7136718,-0.26325 0.7900332,1.28166 0.2890074,0.78349 -5.1314543,1.89286 0.47214,1.27995 -0.65937,0.24323 -1.230428,-3.33564 z"
         id="path871" />
      <path
         d="m -4.4711818,198.56309 q -0.2290012,-0.6029 -0.9401359,-0.68215 -0.705802,-0.0769 -1.8961341,0.37528 -1.1864674,0.45067 -1.6671329,0.97818 -0.4753328,0.52991 -0.2463315,1.13281 0.2304692,0.60676 0.9362712,0.68361 0.7111346,0.0792 1.897602,-0.37142 1.1903322,-0.45213 1.665665,-0.98204 0.4806654,-0.52751 0.2501962,-1.13427 z m 0.6183544,-0.23488 q 0.3684571,0.97005 -0.2068509,1.77231 -0.5699752,0.80467 -2.0308374,1.35955 -1.4569975,0.55342 -2.421314,0.33154 -0.9589838,-0.21949 -1.3274409,-1.18953 -0.3684574,-0.97004 0.2015182,-1.77471 0.5753079,-0.80226 2.0323054,-1.35568 1.4608621,-0.55489 2.419846,-0.3354 0.9643164,0.22188 1.3327736,1.19192 z"
         id="path873" />
      <path
         d="m -7.2572335,205.03595 0.4970568,1.27048 4.3851026,-1.7156 -0.8179346,-1.27368 0.7083924,-0.27715 0.8149221,1.26599 0.304259,0.77769 -5.0934949,1.99275 0.4970568,1.27048 -0.6544929,0.25606 -1.2953603,-3.31096 z"
         id="path875" />
      <path
         d="m -4.7988967,211.27204 0.5101151,1.2653 4.36720123,-1.76067 -0.83100879,-1.2652 0.70550047,-0.28442 0.82791718,1.25752 0.31225231,0.77452 -5.0727018,2.0451 0.5101151,1.2653 -0.6518211,0.26278 -1.3293908,-3.29744 z"
         id="path877" />
      <path
         d="m 2.8970749,217.10972 q -0.2475575,-0.59552 -0.9608048,-0.65271 -0.7078429,-0.055 -1.88360619,0.43381 -1.17194581,0.48718 -1.63604871,1.02932 -0.4586986,0.54437 -0.2111411,1.13989 0.2491444,0.59933 0.95698733,0.65429 0.71324728,0.0572 1.88519317,-0.42999 1.1757632,-0.48876 1.6344618,-1.03314 0.4641029,-0.54214 0.2149585,-1.14147 z m 0.6107861,-0.25391 q 0.3983136,0.95817 -0.1518799,1.77787 -0.5447892,0.82192 -1.9877713,1.42177 -1.43916481,0.59827 -2.4098887,0.40634 -0.9653195,-0.18969 -1.3636331,-1.14786 -0.3983137,-0.95817 0.1464755,-1.78009 0.5501935,-0.8197 1.98935831,-1.41796 1.44298219,-0.59985 2.40830169,-0.41016 0.9707239,0.19192 1.3690375,1.15009 z"
         id="path879" />
      <path
         d="m 0.31401113,223.66323 0.53782609,1.25377 4.32741268,-1.85632 -0.8586398,-1.2466 0.6990728,-0.29988 0.8553803,1.23901 0.3292147,0.76746 -5.0264855,2.15619 0.5378261,1.25377 -0.6458825,0.27707 -1.40160736,-3.26741 z"
         id="path881" />
      <path
         d="m 8.1366439,229.32151 q -0.2612502,-0.58964 -0.9756285,-0.63033 -0.7089238,-0.0386 -1.8730807,0.4772 -1.1603772,0.51413 -1.6118306,1.06685 -0.4459989,0.55483 -0.1847486,1.14446 0.2629249,0.59342 0.9718487,0.63202 0.7143783,0.0407 1.8747554,-0.47343 1.164157,-0.51581 1.6101559,-1.07063 0.4514533,-0.55272 0.1885284,-1.14614 z m 0.6047568,-0.26795 q 0.420345,0.94872 -0.1107635,1.7809 -0.525654,0.83429 -1.954392,1.46732 -1.4249583,0.63136 -2.3998572,0.46191 -0.9694444,-0.16733 -1.3897894,-1.11605 -0.4203449,-0.94871 0.1053091,-1.783 0.5311084,-0.83219 1.9560667,-1.46354 1.428738,-0.63303 2.3981825,-0.46569 0.9748989,0.16944 1.3952438,1.11815 z"
         id="path883" />
      <path
         d="m 5.7077861,235.93263 0.5682294,1.24029 4.2808755,-1.96126 -0.8887733,-1.2253 0.6915553,-0.31683 0.885329,1.21779 0.347825,0.7592 -4.9724301,2.27809 0.5682295,1.24029 -0.6389367,0.29272 -1.4808403,-3.23227 z"
         id="path885" />
      <path
         d="m 13.666861,241.38927 q -0.276393,-0.5827 -0.991584,-0.60493 -0.709684,-0.0203 -1.86013,0.52543 -1.1467111,0.54393 -1.5837379,1.10812 -0.4315199,0.56616 -0.1551274,1.14885 0.2781643,0.58643 0.9878483,0.6067 0.715191,0.0222 1.861902,-0.52169 1.150446,-0.5457 1.581966,-1.11186 0.437027,-0.56419 0.158863,-1.15062 z m 0.597634,-0.28348 q 0.444709,0.93754 -0.06473,1.78316 -0.50393,0.84759 -1.915841,1.51731 -1.408176,0.66795 -2.387126,0.52374 -0.9734431,-0.14224 -1.4181516,-1.07978 -0.4447085,-0.93754 0.059222,-1.78512 0.5094371,-0.84563 1.9176129,-1.51358 1.411911,-0.66972 2.385355,-0.52748 0.97895,0.14421 1.423658,1.08175 z"
         id="path887" />
      <path
         d="m 11.411156,248.05807 0.602102,1.2242 4.225356,-2.07816 -0.922113,-1.20042 0.682586,-0.33572 0.918464,1.193 0.36856,0.74936 -4.907943,2.41389 0.602103,1.2242 -0.63065,0.31017 -1.569116,-3.19034 z"
         id="path889" />
      <path
         d="m 19.518052,253.28203 q -0.293391,-0.57432 -1.008926,-0.57554 -0.709973,5.9e-4 -1.843893,0.57985 -1.130238,0.57738 -1.550502,1.15417 -0.414702,0.57859 -0.121312,1.15291 0.295271,0.578 1.005244,0.57742 0.715536,0.001 1.845774,-0.57617 1.133919,-0.57925 1.548621,-1.15784 0.420265,-0.57679 0.124994,-1.1548 z m 0.589049,-0.30091 q 0.472057,0.92407 -0.01232,1.78429 -0.478814,0.86203 -1.870442,1.57294 -1.387947,0.70903 -2.370711,0.59364 -0.977201,-0.11359 -1.449259,-1.03766 -0.472057,-0.92407 0.0068,-1.78609 0.484376,-0.86023 1.872323,-1.56926 1.391628,-0.7109 2.368829,-0.59732 0.982764,0.11539 1.454822,1.03946 z"
         id="path891" />
      <path
         d="m 22.575947,259.15114 q -0.302741,-0.56945 -1.018201,-0.55897 -0.709869,0.0122 -1.834166,0.60992 -1.120647,0.59578 -1.531425,1.17936 -0.405187,0.58529 -0.102446,1.15474 0.304682,0.5731 1.014551,0.56091 0.715459,-0.0105 1.836106,-0.60627 1.124297,-0.59772 1.529484,-1.18301 0.410778,-0.58358 0.106097,-1.15668 z m 0.58405,-0.31051 q 0.487103,0.91623 0.01686,1.78426 -0.464657,0.86974 -1.844476,1.60331 -1.376169,0.73162 -2.360688,0.63232 -0.978928,-0.0976 -1.46603,-1.01382 -0.487103,-0.91623 -0.02245,-1.78597 0.470248,-0.86803 1.846416,-1.59966 1.37982,-0.73356 2.358748,-0.63597 0.984519,0.0993 1.471621,1.01553 z"
         id="path893" />
      <path
         d="m 20.631175,265.91117 0.661608,1.1931 4.117986,-2.28355 -0.980061,-1.15359 0.665241,-0.3689 0.976051,1.14636 0.404984,0.73032 -4.783227,2.65245 0.661608,1.19309 -0.614625,0.34083 -1.72419,-3.10928 z"
         id="path895" />
      <path
         d="m 23.906164,271.75203 0.684406,1.18016 4.073358,-2.36224 -1.002041,-1.13455 0.658032,-0.38161 0.997893,1.1274 0.418939,0.72241 -4.73139,2.74384 0.684406,1.18017 -0.607964,0.35257 -1.783602,-3.07558 z"
         id="path897" />
      <path
         d="m 32.350242,276.37128 q -0.335174,-0.55098 -1.048829,-0.49913 -0.707975,0.0532 -1.795814,0.71499 -1.084308,0.65961 -1.46064,1.26598 -0.370652,0.60775 -0.03548,1.15873 0.337323,0.55452 1.045298,0.50128 0.713655,-0.0519 1.797962,-0.71146 1.087839,-0.66175 1.458491,-1.2695 0.376333,-0.60637 0.03901,-1.16089 z m 0.565111,-0.34376 q 0.539287,0.88651 0.120039,1.78029 -0.413568,0.89516 -1.748643,1.70732 -1.331544,0.81 -2.320158,0.76781 -0.982935,-0.0408 -1.522221,-0.92732 -0.539287,-0.88652 -0.125719,-1.78168 0.419248,-0.89378 1.750791,-1.70378 1.335076,-0.81215 2.31801,-0.77135 0.988615,0.0422 1.527901,0.92871 z"
         id="path899" />
      <path
         d="m 30.805067,283.2248 0.735714,1.14888 3.965377,-2.53933 -1.051033,-1.08932 0.640587,-0.41022 1.046574,1.08236 0.450347,0.70325 -4.605965,2.94955 0.735715,1.14888 -0.591847,0.379 -1.917317,-2.99405 z"
         id="path901" />
      <path
         d="m 39.442681,287.43906 q -0.361527,-0.53406 -1.071823,-0.44763 -0.704556,0.0876 -1.758987,0.80133 -1.051007,0.71147 -1.397458,1.33539 -0.340711,0.62503 0.02082,1.15909 0.363845,0.53749 1.068401,0.44995 0.710296,-0.0864 1.761303,-0.79791 1.054431,-0.71378 1.395142,-1.33881 0.346451,-0.62393 -0.01739,-1.16141 z m 0.547757,-0.3708 q 0.581688,0.85929 0.206324,1.77237 -0.369623,0.91419 -1.663697,1.79019 -1.290651,0.87369 -2.280148,0.87955 -0.983756,0.007 -1.565444,-0.85233 -0.581688,-0.85929 -0.212065,-1.77347 0.375364,-0.91308 1.666014,-1.78677 1.294074,-0.87601 2.27783,-0.88298 0.989497,-0.006 1.571186,0.85344 z"
         id="path903" />
      <path
         d="m 38.236603,294.35136 0.796519,1.10759 3.822869,-2.74919 -1.108172,-1.03114 0.617566,-0.44412 1.103345,1.02442 0.487566,0.67799 -4.440435,3.19331 0.796518,1.10759 -0.570577,0.41033 -2.075776,-2.88645 z"
         id="path905" />
      <path
         d="m 47.083527,298.05419 q -0.392996,-0.51135 -1.096807,-0.38235 -0.698014,0.12977 -1.707602,0.90568 -1.00631,0.7734 -1.314606,1.41703 -0.302499,0.64439 0.0905,1.15574 0.395516,0.51463 1.09353,0.38486 0.703811,-0.129 1.710121,-0.9024 1.009588,-0.77591 1.312087,-1.4203 0.308296,-0.64364 -0.08722,-1.15826 z m 0.524462,-0.40308 q 0.632321,0.82275 0.312557,1.75675 -0.313966,0.93477 -1.553006,1.88703 -1.235762,0.94974 -2.223115,1.0151 -0.981556,0.0661 -1.613877,-0.75663 -0.632321,-0.82274 -0.318354,-1.75751 0.319763,-0.934 1.555525,-1.88374 1.23904,-0.95226 2.220596,-1.01838 0.987353,-0.0654 1.619674,0.75738 z"
         id="path907" />
      <path
         d="m 46.301577,305.01531 0.869641,1.05115 3.628076,-3.00157 -1.175407,-0.95379 0.586098,-0.48489 1.170136,0.94741 0.532326,0.64344 -4.214174,3.48647 0.869641,1.05115 -0.541504,0.448 -2.266337,-2.73937 z"
         id="path909" />
      <path
         d="m 50.61026,310.12081 0.911864,1.01474 3.502403,-3.14731 -1.213396,-0.90497 0.565797,-0.50843 1.207869,0.89881 0.558172,0.62115 -4.0682,3.65575 0.911864,1.01474 -0.522746,0.46975 -2.376373,-2.64449 z"
         id="path911" />
      <path
         d="m 59.782125,312.74862 q -0.453071,-0.45896 -1.135594,-0.24413 -0.676677,0.21488 -1.582843,1.10941 -0.903224,0.89162 -1.129771,1.56836 -0.220701,0.67679 0.232371,1.13575 0.455975,0.46191 1.132652,0.24704 0.682523,-0.21484 1.585747,-1.10646 0.906166,-0.89453 1.126867,-1.57131 0.226547,-0.67675 -0.229429,-1.13866 z m 0.470736,-0.46468 q 0.72898,0.73846 0.526871,1.70478 -0.196263,0.96635 -1.308376,2.06417 -1.109171,1.09493 -2.08092,1.28158 -0.965904,0.1867 -1.694884,-0.55177 -0.72898,-0.73846 -0.532717,-1.70481 0.202109,-0.96632 1.311279,-2.06124 1.112113,-1.09783 2.078017,-1.28452 0.971749,-0.18666 1.70073,0.55181 z"
         id="path913" />
      <path
         d="m 59.875689,319.72409 1.009614,0.91754 3.166903,-3.4847 -1.298528,-0.77789 0.511598,-0.56294 1.29241,0.77233 0.618006,0.56165 -3.678502,4.04763 1.009615,0.91754 -0.472672,0.52011 -2.631117,-2.39117 z"
         id="path915" />
      <path
         d="m 69.228987,321.31575 q -0.503677,-0.40278 -1.156363,-0.10954 -0.646876,0.2926 -1.442113,1.28704 -0.792655,0.99121 -0.938435,1.68983 -0.13997,0.69796 0.363707,1.10074 0.506906,0.40537 1.153782,0.11277 0.652686,-0.29325 1.445341,-1.28446 0.795237,-0.99444 0.935207,-1.6924 0.14578,-0.69862 -0.361126,-1.10398 z m 0.41311,-0.51659 q 0.810404,0.64806 0.722787,1.63139 -0.08181,0.98268 -1.05778,2.20313 -0.973392,1.21722 -1.916615,1.51633 -0.937412,0.29847 -1.747816,-0.3496 -0.810404,-0.64806 -0.728597,-1.63074 0.08762,-0.98333 1.061009,-2.20055 0.975973,-1.22045 1.913385,-1.51892 0.943223,-0.29911 1.753627,0.34896 z"
         id="path917" />
      <path
         d="m 70.145306,328.19941 1.125439,0.77109 2.661448,-3.88447 -1.39258,-0.5933 0.429944,-0.62752 1.385759,0.58863 0.688905,0.47201 -3.091392,4.51198 1.125439,0.7711 -0.397231,0.57977 -2.932962,-2.00952 z"
         id="path919" />
      <path
         d="m 79.554139,328.36856 q -0.561537,-0.31718 -1.159015,0.0765 -0.591846,0.39215 -1.218067,1.50083 -0.624188,1.10507 -0.65653,1.818 -0.02671,0.71136 0.534827,1.02854 0.565136,0.31921 1.156982,-0.0729 0.597478,-0.39372 1.221666,-1.49879 0.626221,-1.10868 0.652931,-1.82004 0.03234,-0.71292 -0.532794,-1.03213 z m 0.32531,-0.57594 q 0.903498,0.51033 0.97404,1.49503 0.07618,0.98313 -0.692369,2.34378 -0.766511,1.35705 -1.649861,1.80295 -0.877717,0.44434 -1.781215,-0.066 -0.903498,-0.51033 -0.979673,-1.49346 -0.07054,-0.9847 0.695969,-2.34175 0.768544,-1.36064 1.646261,-1.80498 0.88335,-0.44591 1.786848,0.0644 z"
         id="path921" />
      <path
         d="m 81.56174,334.97117 1.249378,0.54795 1.89128,-4.31224 -1.478726,-0.32352 0.305528,-0.69663 1.471153,0.3202 0.764771,0.33542 -2.196807,5.00887 1.249378,0.54795 -0.282281,0.64362 -3.255954,-1.42801 z"
         id="path923" />
      <path
         d="m 90.713775,333.24274 q -0.616577,-0.1891 -1.11549,0.32382 -0.493747,0.51017 -0.86709,1.72751 -0.37213,1.2134 -0.250513,1.91662 0.126782,0.70048 0.743359,0.88957 0.62053,0.19031 1.114278,-0.31986 0.498912,-0.51292 0.871042,-1.72631 0.373343,-1.21734 0.246561,-1.91782 -0.121618,-0.70322 -0.742147,-0.89353 z m 0.193944,-0.63239 q 0.992057,0.30425 1.272558,1.25079 0.285666,0.94379 -0.172527,2.43781 -0.456981,1.49006 -1.223871,2.11537 -0.761725,0.62258 -1.753782,0.31833 -0.992057,-0.30425 -1.277722,-1.24805 -0.280501,-0.94653 0.176479,-2.43659 0.458193,-1.49402 1.219918,-2.11659 0.76689,-0.62532 1.758947,-0.32107 z"
         id="path925" />
      <path
         d="m 94.086801,339.20699 1.344941,0.22877 0.789596,-4.64209 -1.513046,0.0446 0.127556,-0.7499 1.504894,-0.046 0.823267,0.14003 -0.917151,5.39199 1.344941,0.22877 -0.117851,0.69285 -3.504997,-0.59618 z"
         id="path927" />
      <path
         d="m 102.42915,335.22574 q -0.64463,-0.0197 -0.9905,0.6067 -0.34162,0.62238 -0.38049,1.8951 -0.0387,1.26858 0.26414,1.91478 0.30713,0.6422 0.95175,0.66188 0.64876,0.0198 0.99038,-0.60257 0.34587,-0.62639 0.38461,-1.89497 0.0389,-1.27271 -0.26826,-1.91491 -0.30288,-0.6462 -0.95163,-0.66601 z m 0.0202,-0.66115 q 1.03718,0.0317 1.55751,0.87064 0.5246,0.83496 0.4769,2.39692 -0.0476,1.55784 -0.62227,2.36336 -0.57044,0.80152 -1.60762,0.76984 -1.03718,-0.0317 -1.56177,-0.86663 -0.52034,-0.83896 -0.47276,-2.3968 0.0477,-1.56197 0.61813,-2.36348 0.5747,-0.80552 1.61188,-0.77385 z"
         id="path929" />
      <path
         d="m 107.24879,340.06081 1.35612,-0.14877 -0.51349,-4.68067 -1.44284,0.45772 -0.0829,-0.75614 1.43462,-0.45682 0.83011,-0.0911 0.59644,5.43682 1.35612,-0.14877 0.0766,0.6986 -3.53413,0.38771 z"
         id="path931" />
      <path
         d="m 114.20176,333.94136 q -0.62592,0.15539 -0.78949,0.85198 -0.16056,0.69158 0.14623,1.92737 0.3058,1.23179 0.77216,1.77199 0.46937,0.53519 1.09529,0.3798 0.62994,-0.15638 0.7905,-0.84796 0.16357,-0.69659 -0.14222,-1.92837 -0.3068,-1.2358 -0.77617,-1.77099 -0.46636,-0.54021 -1.0963,-0.38382 z m -0.15937,-0.64197 q 1.00709,-0.25002 1.73494,0.41695 0.73086,0.66196 1.10739,2.17862 0.37552,1.51264 0.0401,2.44357 -0.3324,0.92593 -1.33949,1.17594 -1.00709,0.25002 -1.73796,-0.41194 -0.72785,-0.66697 -1.10337,-2.17961 -0.37652,-1.51666 -0.0441,-2.44258 0.33542,-0.93093 1.34251,-1.18095 z"
         id="path933" />
      <path
         d="m 120.1662,337.3087 1.27399,-0.488 -1.68432,-4.39721 -1.27948,0.80884 -0.27209,-0.71035 1.27176,-0.80588 0.77984,-0.29871 1.95641,5.10756 1.27399,-0.48799 0.25139,0.6563 -3.3201,1.27174 z"
         id="path935" />
      <path
         d="m 125.50478,329.6316 q -0.57389,0.29423 -0.57405,1.00977 0.002,0.70997 0.58255,1.84304 0.57904,1.12938 1.15644,1.5488 0.5792,0.41385 1.1531,0.11962 0.57757,-0.29612 0.57594,-1.00609 1.6e-4,-0.71554 -0.57888,-1.84493 -0.58092,-1.13306 -1.16012,-1.54692 -0.57741,-0.41941 -1.15498,-0.12329 z m -0.30177,-0.58861 q 0.92337,-0.47341 1.78431,0.01 0.86273,0.47755 1.57568,1.86813 0.71106,1.3869 0.59712,2.36983 -0.11215,0.97737 -1.03553,1.45079 -0.92337,0.47341 -1.7861,-0.004 -0.86094,-0.48311 -1.572,-1.87001 -0.71295,-1.39059 -0.6008,-2.36795 0.11394,-0.98294 1.03732,-1.45635 z"
         id="path937" />
      <path
         d="m 132.12255,331.57953 1.15085,-0.73263 -2.52869,-3.97217 -1.09214,1.04811 -0.4085,-0.64168 1.08516,-1.04367 0.70446,-0.44846 2.93719,4.61385 1.15085,-0.73263 0.37742,0.59286 -2.99918,1.90928 z"
         id="path939" />
      <path
         d="m 136.00287,322.97124 q -0.51478,0.3885 -0.39195,1.09342 0.12364,0.69912 0.89068,1.71547 0.76454,1.01305 1.40545,1.32698 0.64171,0.30814 1.15649,-0.0804 0.51807,-0.39099 0.39443,-1.09011 -0.12283,-0.70492 -0.88737,-1.71797 -0.76704,-1.01635 -1.40875,-1.32449 -0.64091,-0.31393 -1.15898,0.0771 z m -0.39846,-0.52797 q 0.82826,-0.62509 1.75942,-0.29715 0.93197,0.32215 1.87334,1.56949 0.93887,1.24404 0.99557,2.23193 0.0575,0.9821 -0.77074,1.60718 -0.82827,0.62509 -1.76024,0.30294 -0.93116,-0.32794 -1.87003,-1.57198 -0.94136,-1.24734 -0.99888,-2.22944 -0.0567,-0.98789 0.77156,-1.61297 z"
         id="path941" />
      <path
         d="m 142.89899,323.77665 1.03067,-0.89383 -3.08506,-3.55736 -0.92622,1.19725 -0.49838,-0.57468 0.91998,-1.19183 0.63089,-0.54713 3.58343,4.13204 1.03067,-0.89383 0.46046,0.53095 -2.68598,2.32937 z"
         id="path943" />
      <path
         d="m 145.60891,314.66055 q -0.46185,0.45014 -0.25136,1.13402 0.21056,0.67803 1.0993,1.58987 0.88585,0.90888 1.56114,1.13973 0.67537,0.22501 1.13721,-0.22513 0.4648,-0.45302 0.25424,-1.13106 -0.21049,-0.68387 -1.09634,-1.59276 -0.88874,-0.91184 -1.5641,-1.13684 -0.67529,-0.23086 -1.14009,0.22217 z m -0.46169,-0.47369 q 0.7431,-0.72426 1.7081,-0.516 0.96509,0.20241 2.05581,1.32149 1.08784,1.11612 1.2683,2.08904 0.18054,0.96707 -0.56255,1.69134 -0.74309,0.72426 -1.70817,0.52185 -0.96501,-0.20826 -2.05285,-1.32438 -1.09072,-1.11908 -1.27126,-2.08615 -0.18047,-0.97292 0.56262,-1.69719 z"
         id="path945" />
      <path
         d="m 152.58346,314.6065 0.92807,-0.99995 -3.45134,-3.20323 -0.79145,1.29031 -0.55755,-0.51746 0.78583,-1.28425 0.56808,-0.61209 4.00889,3.72069 0.92807,-0.99995 0.51512,0.47809 -2.41859,2.60593 z"
         id="path947" />
      <path
         d="m 154.38461,305.22106 q -0.41776,0.49133 -0.14429,1.15254 0.273,0.65539 1.24306,1.48019 0.96691,0.82212 1.66082,0.98886 0.69344,0.16091 1.11119,-0.33042 0.42044,-0.49448 0.14744,-1.14987 -0.27348,-0.66121 -1.24039,-1.48333 -0.97006,-0.82481 -1.66349,-0.98571 -0.69391,-0.16674 -1.11434,0.32774 z m -0.50393,-0.42847 q 0.67216,-0.79054 1.6524,-0.67337 0.97978,0.11134 2.17031,1.1236 1.18737,1.00958 1.45797,1.96137 0.27012,0.94597 -0.40204,1.73651 -0.67216,0.79053 -1.65193,0.67919 -0.98025,-0.11716 -2.16763,-1.12674 -1.19052,-1.01226 -1.46065,-1.95823 -0.27059,-0.9518 0.40157,-1.74233 z"
         id="path949" />
      <path
         d="m 161.34634,304.52264 0.84354,-1.07221 -3.70075,-2.9115 -0.68374,1.35048 -0.59784,-0.47033 0.67862,-1.34399 0.51635,-0.65632 4.2986,3.38183 0.84354,-1.07221 0.55235,0.43455 -2.19832,2.79425 z"
         id="path951" />
      <path
         d="m 165.43279,299.23128 0.8071,-1.09991 -3.79635,-2.7857 -0.63804,1.37266 -0.61328,-0.45002 0.63315,-1.366 0.49404,-0.67327 4.40963,3.23572 0.80709,-1.0999 0.56662,0.41577 -2.10334,2.86643 z"
         id="path953" />
      <path
         d="m 166.22662,289.66472 q -0.36586,0.5311 -0.0268,1.16123 0.33795,0.62438 1.38653,1.34674 1.04517,0.72 1.7524,0.81563 0.70616,0.0899 1.07203,-0.44122 0.36821,-0.53451 0.0303,-1.15889 -0.33901,-0.63013 -1.38419,-1.35013 -1.04858,-0.72236 -1.75474,-0.81223 -0.70722,-0.0956 -1.07544,0.43887 z m -0.54471,-0.37524 q 0.58867,-0.85453 1.57574,-0.83721 0.98601,0.0116 2.2729,0.8981 1.28349,0.88418 1.64906,1.80369 0.36451,0.91376 -0.22416,1.76829 -0.58867,0.85452 -1.57469,0.84295 -0.98707,-0.0173 -2.27056,-0.90151 -1.28689,-0.88652 -1.6514,-1.80028 -0.36556,-0.91951 0.22311,-1.77403 z"
         id="path955" />
      <path
         d="m 169.87367,284.21273 q -0.35157,0.54067 0.004,1.16153 0.35449,0.61514 1.42197,1.30926 1.06401,0.69187 1.77353,0.76859 0.70831,0.071 1.05988,-0.46966 0.35382,-0.54414 -6.7e-4,-1.15928 -0.3557,-0.62086 -1.41971,-1.31273 -1.06748,-0.69412 -1.77579,-0.76513 -0.70952,-0.0767 -1.06334,0.46742 z m -0.55454,-0.36059 q 0.56567,-0.86992 1.55285,-0.87894 0.98597,-0.0147 2.29606,0.83714 1.30662,0.84962 1.69658,1.75906 0.38876,0.90371 -0.1769,1.77363 -0.56567,0.86993 -1.55164,0.88466 -0.98718,0.009 -2.2938,-0.8406 -1.31009,-0.85188 -1.69884,-1.75559 -0.38997,-0.90943 0.17569,-1.77936 z"
         id="path957" />
      <path
         d="m 176.716,282.63619 0.716,-1.16127 -4.00815,-2.47126 -0.52555,1.41954 -0.64749,-0.39922 0.5212,-1.41251 0.43828,-0.71084 4.65564,2.87049 0.716,-1.16128 0.59823,0.36885 -1.86592,3.02635 z"
         id="path959" />
      <path
         d="m 176.78399,273.01253 q -0.32643,0.55621 0.0574,1.16012 0.3823,0.59826 1.48046,1.24274 1.09459,0.64239 1.80688,0.68653 0.71082,0.0385 1.03725,-0.51773 0.32852,-0.55978 -0.0538,-1.15803 -0.38378,-0.60391 -1.47837,-1.24631 -1.09816,-0.64448 -1.80898,-0.68296 -0.71229,-0.0441 -1.04081,0.51564 z m -0.57047,-0.3348 q 0.52521,-0.89492 1.51094,-0.94916 0.98426,-0.0599 2.332,0.73106 1.34418,0.78887 1.7754,1.67948 0.42975,0.88495 -0.0955,1.77988 -0.52521,0.89492 -1.50947,0.95482 -0.98573,0.0542 -2.32991,-0.73463 -1.34774,-0.79096 -1.77749,-1.67591 -0.43123,-0.89061 0.094,-1.78554 z"
         id="path961" />
      <path
         d="m 183.55476,271.1257 0.66701,-1.19009 -4.10761,-2.30217 -0.46596,1.4402 -0.66356,-0.37191 0.46192,-1.43298 0.40829,-0.72848 4.77116,2.67408 0.66701,-1.19009 0.61307,0.34361 -1.73825,3.10144 z"
         id="path963" />
      <path
         d="m 183.24246,261.49525 q -0.30501,0.56823 0.10148,1.15709 0.40481,0.58327 1.52671,1.18547 1.11826,0.60024 1.83172,0.61722 0.71177,0.0114 1.01678,-0.55685 0.30696,-0.57188 -0.0978,-1.15515 -0.40649,-0.58886 -1.52475,-1.1891 -1.12191,-0.6022 -1.83368,-0.61358 -0.71345,-0.017 -1.02042,0.5549 z m -0.58281,-0.31284 q 0.49076,-0.91427 1.47371,-1.00601 0.98126,-0.0973 2.35815,0.64173 1.37324,0.73711 1.83806,1.61065 0.46314,0.86795 -0.0276,1.78223 -0.49076,0.91428 -1.47202,1.01161 -0.98295,0.0917 -2.35619,-0.64538 -1.37689,-0.73906 -1.84002,-1.607 -0.46483,-0.87355 0.0259,-1.78783 z"
         id="path965" />
      <path
         d="m 189.9426,259.35231 0.62495,-1.2127 -4.18566,-2.15701 -0.41527,1.45562 -0.67618,-0.34846 0.41149,-1.44827 0.38255,-0.74232 4.86182,2.50547 0.62495,-1.2127 0.62472,0.32194 -1.62865,3.16037 z"
         id="path967" />
      <path
         d="m 189.30846,249.72927 q -0.28649,0.5778 0.13882,1.15322 0.42344,0.56987 1.56422,1.1355 1.13708,0.56379 1.85071,0.55771 0.71176,-0.0116 0.99825,-0.58942 0.28833,-0.5815 -0.13512,-1.15138 -0.42531,-0.57542 -1.56238,-1.13921 -1.14078,-0.56563 -1.85255,-0.554 -0.71363,0.006 -1.00195,0.58758 z m -0.59262,-0.29383 q 0.46095,-0.92966 1.44043,-1.05311 0.9776,-0.12899 2.37765,0.56519 1.39635,0.69234 1.88916,1.55041 0.49094,0.85252 0.03,1.78218 -0.46095,0.92966 -1.43855,1.05865 -0.97948,0.12345 -2.37582,-0.56889 -1.40005,-0.69418 -1.89099,-1.5467 -0.49282,-0.85807 -0.0319,-1.78773 z"
         id="path969" />
      <path
         d="m 195.94029,247.37148 0.58831,-1.23089 -4.24843,-2.03056 -0.37146,1.46742 -0.68631,-0.32803 0.36789,-1.45996 0.36011,-0.75345 4.93475,2.35859 0.58832,-1.23089 0.63409,0.30307 -1.53317,3.20777 z"
         id="path971" />
      <path
         d="m 195.0291,237.76441 q -0.27024,0.58557 0.17098,1.14888 0.43919,0.55783 1.59532,1.09138 1.15238,0.53181 1.86557,0.50579 0.71116,-0.0315 0.9814,-0.61707 0.27197,-0.58933 -0.16723,-1.14715 -0.44121,-0.56332 -1.59359,-1.09513 -1.15613,-0.53354 -1.8673,-0.50204 -0.71318,0.026 -0.98515,0.61534 z m -0.60059,-0.27717 q 0.43481,-0.94217 1.41045,-1.09293 0.97362,-0.15625 2.39251,0.49856 1.41514,0.65307 1.93173,1.49704 0.51456,0.83848 0.0798,1.78065 -0.43481,0.94217 -1.40843,1.09842 -0.97565,0.15076 -2.39078,-0.50232 -1.41889,-0.6548 -1.93346,-1.49328 -0.51658,-0.84397 -0.0818,-1.78614 z"
         id="path973" />
      <path
         d="m 201.5962,235.22195 0.55595,-1.24584 -4.30004,-1.91886 -0.33299,1.47662 -0.69465,-0.30998 0.32962,-1.46908 0.34031,-0.7626 4.99469,2.22884 0.55595,-1.24584 0.64179,0.2864 -1.44883,3.24674 z"
         id="path975" />
      <path
         d="m 200.4427,225.63639 q -0.25579,0.59203 0.19911,1.14435 0.45275,0.54688 1.62163,1.0519 1.16508,0.50337 1.87741,0.45987 0.71018,-0.0489 0.96596,-0.64097 0.25743,-0.59582 -0.19532,-1.14271 -0.4549,-0.55231 -1.61998,-1.05569 -1.16888,-0.50502 -1.87905,-0.45608 -0.71234,0.0435 -0.96976,0.63933 z m -0.60721,-0.26235 q 0.41155,-0.95255 1.38321,-1.12721 0.96949,-0.18008 2.40402,0.43971 1.43073,0.61815 1.96787,1.44919 0.53499,0.8256 0.12343,1.77816 -0.41155,0.95255 -1.38105,1.13264 -0.97165,0.17466 -2.40238,-0.4435 -1.43453,-0.61979 -1.96952,-1.44539 -0.53714,-0.83104 -0.12558,-1.7836 z"
         id="path977" />
      <path
         d="m 206.94791,222.93423 0.52698,-1.25836 -4.34327,-1.81891 -0.29874,1.48393 -0.70164,-0.29383 0.29555,-1.4763 0.32258,-0.77028 5.04491,2.11274 0.52698,-1.25837 0.64825,0.27148 -1.37335,3.27938 z"
         id="path979" />
      <path
         d="m 205.58022,213.37157 q -0.24277,0.59748 0.22411,1.13971 0.4646,0.53684 1.64425,1.01616 1.17582,0.47777 1.88703,0.41869 0.70893,-0.0645 0.9517,-0.66196 0.24433,-0.60131 -0.22027,-1.13815 -0.46689,-0.54224 -1.6427,-1.02 -1.17965,-0.47932 -1.88858,-0.41485 -0.71121,0.0591 -0.95554,0.6604 z m -0.6128,-0.249 q 0.39061,-0.96134 1.35821,-1.15721 0.96532,-0.20126 2.41307,0.387 1.44392,0.5867 1.99911,1.40578 0.55292,0.8137 0.16231,1.77503 -0.39062,0.96134 -1.35594,1.1626 -0.9676,0.19587 -2.41151,-0.39083 -1.44775,-0.58826 -2.00067,-1.40195 -0.5552,-0.81909 -0.16458,-1.78042 z"
         id="path981" />
      <path
         d="m 212.02698,210.52746 0.50073,-1.26904 -4.38011,-1.72829 -0.26786,1.48982 -0.70758,-0.2792 0.26482,-1.48212 0.3065,-0.77681 5.08771,2.00748 0.50073,-1.26904 0.65375,0.25795 -1.30494,3.3072 z"
         id="path983" />
      <path
         d="m 210.46565,200.99247 q -0.23091,0.60217 0.24661,1.13506 0.47514,0.52754 1.66404,0.98343 1.18504,0.45441 1.89494,0.38126 0.70752,-0.0785 0.93842,-0.68065 0.23239,-0.60603 -0.24275,-1.13358 -0.47752,-0.53288 -1.66256,-0.98729 -1.1889,-0.45588 -1.89642,-0.3774 -0.7099,0.0731 -0.94228,0.67917 z m -0.61761,-0.23682 q 0.37151,-0.96888 1.33505,-1.18386 0.96115,-0.22032 2.42025,0.33918 1.45525,0.55801 2.02654,1.36595 0.56891,0.8026 0.19739,1.77148 -0.37151,0.96887 -1.33267,1.18919 -0.96353,0.21498 -2.41877,-0.34304 -1.4591,-0.55949 -2.02802,-1.36209 -0.57129,-0.80794 -0.19977,-1.77681 z"
         id="path985" />
      <path
         d="m 216.85647,198.02165 0.47664,-1.27829 -4.41201,-1.64515 -0.23964,1.49461 -0.71274,-0.26576 0.23675,-1.48687 0.29176,-0.78246 5.12476,1.91092 0.47665,-1.27829 0.65851,0.24555 -1.24217,3.33128 z"
         id="path987" />
      <path
         d="m 215.1194,188.51388 q -0.21994,0.60626 0.26716,1.1304 0.48462,0.51885 1.68159,0.95311 1.19308,0.43284 1.90154,0.34684 0.70598,-0.0913 0.92593,-0.69755 0.22136,-0.61015 -0.26327,-1.12899 -0.4871,-0.52414 -1.68018,-0.95699 -1.19697,-0.43426 -1.90295,-0.34296 -0.70846,0.086 -0.92982,0.69614 z m -0.6218,-0.22558 q 0.35389,-0.97546 1.31337,-1.20787 0.957,-0.23771 2.42601,0.29524 1.46512,0.53154 2.05096,1.32899 0.58337,0.79215 0.22948,1.7676 -0.35389,0.97546 -1.31089,1.21317 -0.95947,0.23241 -2.42459,-0.29913 -1.46901,-0.53295 -2.05238,-1.3251 -0.58585,-0.79745 -0.23196,-1.7729 z"
         id="path989" />
      <path
         d="m 221.45687,185.427 0.45429,-1.2864 -4.44002,-1.56798 -0.21355,1.49856 -0.71726,-0.2533 0.21079,-1.49077 0.27808,-0.78743 5.15729,1.82129 0.45429,-1.2864 0.66269,0.23403 -1.18391,3.35243 z"
         id="path991" />
      <path
         d="m 219.5565,175.9513 q -0.20973,0.60987 0.28612,1.12574 0.49328,0.51063 1.69738,0.92469 1.20019,0.41273 1.90711,0.31483 0.70434,-0.10316 0.91407,-0.71303 0.21106,-0.61378 -0.28222,-1.1244 -0.49584,-0.51588 -1.69604,-0.9286 -1.2041,-0.41407 -1.90844,-0.31092 -0.70692,0.0979 -0.91798,0.71169 z m -0.62551,-0.2151 q 0.33744,-0.98127 1.29287,-1.22978 0.95287,-0.25377 2.43063,0.2544 1.47385,0.50683 2.07302,1.29432 0.59661,0.78222 0.25917,1.76349 -0.33743,0.98126 -1.2903,1.23503 -0.95543,0.24852 -2.42929,-0.25831 -1.47776,-0.50818 -2.07437,-1.29041 -0.59917,-0.78748 -0.26173,-1.76874 z"
         id="path993" />
      <path
         d="m 225.8457,172.74829 0.43338,-1.29359 -4.46486,-1.49581 -0.18922,1.50183 -0.72128,-0.24164 0.1866,-1.49399 0.26528,-0.79184 5.18613,1.73745 0.43338,-1.29359 0.6664,0.22326 -1.12941,3.37118 z"
         id="path995" />
      <path
         d="m 223.79638,163.29787 q -0.20021,0.61306 0.3036,1.12116 0.50115,0.5029 1.71155,0.89819 1.20646,0.39402 1.91177,0.28514 0.70265,-0.1141 0.90287,-0.72715 0.2015,-0.61699 -0.29966,-1.11988 -0.50381,-0.50811 -1.71027,-0.90212 -1.21039,-0.3953 -1.91305,-0.28121 -0.70531,0.10888 -0.90681,0.72587 z m -0.62877,-0.20535 q 0.32214,-0.98639 1.27359,-1.24973 0.94881,-0.26855 2.43429,0.21659 1.48156,0.48385 2.0929,1.26192 0.6087,0.77286 0.28656,1.75926 -0.32215,0.98639 -1.27095,1.25494 -0.95146,0.26334 -2.43301,-0.22052 -1.48548,-0.48514 -2.09418,-1.258 -0.61134,-0.77807 -0.2892,-1.76446 z"
         id="path997" />
      <path
         d="m 230.02948,160.01854 0.41441,-1.2998 -4.48626,-1.43034 -0.16724,1.50443 -0.72473,-0.23106 0.16472,-1.49656 0.25367,-0.79563 5.21099,1.66141 0.41441,-1.2998 0.6696,0.21349 -1.07998,3.38734 z"
         id="path999" />
      <path
         d="m 227.86289,150.55132 q -0.19256,0.61551 0.31755,1.11729 0.50739,0.49661 1.72262,0.87678 1.21128,0.37893 1.91517,0.26127 0.70118,-0.12285 0.89374,-0.73836 0.19379,-0.61945 -0.31361,-1.11605 -0.5101,-0.50179 -1.72138,-0.88072 -1.21523,-0.38017 -1.91641,-0.25733 -0.70389,0.11767 -0.89768,0.73712 z m -0.63129,-0.19749 q 0.30981,-0.99033 1.25791,-1.26551 0.94538,-0.28037 2.4368,0.18621 1.48747,0.46534 2.10847,1.23572 0.61829,0.76521 0.30848,1.75555 -0.30982,0.99033 -1.2552,1.27069 -0.9481,0.27518 -2.43557,-0.19015 -1.49142,-0.46658 -2.10971,-1.23179 -0.621,-0.77038 -0.31118,-1.76072 z"
         id="path1001" />
      <path
         d="m 234.04529,147.18065 0.4282,-1.29532 -4.47081,-1.47792 -0.18321,1.50257 -0.72224,-0.23875 0.18061,-1.49472 0.26211,-0.79289 5.19305,1.71667 0.4282,-1.29532 0.66728,0.22059 -1.1159,3.37568 z"
         id="path1003" />
      <path
         d="m 503.22137,-5.6223981 q -0.64492,0 -0.97152,0.6366539 -0.32246,0.6325198 -0.32246,1.9058276 0,1.2691737 0.32246,1.9058276 0.3266,0.63251977 0.97152,0.63251977 0.64906,0 0.97152,-0.63251977 0.32659,-0.6366539 0.32659,-1.9058276 0,-1.2733078 -0.32659,-1.9058276 -0.32246,-0.6366539 -0.97152,-0.6366539 z m 0,-0.6614586 q 1.03766,0 1.58337,0.8226892 0.54983,0.818555 0.54983,2.3812509 0,1.5585618 -0.54983,2.38125096 -0.54571,0.81855501 -1.58337,0.81855501 -1.03766,0 -1.5875,-0.81855501 -0.5457,-0.82268916 -0.5457,-2.38125096 0,-1.5626959 0.5457,-2.3812509 0.54984,-0.8226892 1.5875,-0.8226892 z"
         id="path1005" />
      <path
         d="m 508.28981,-0.70279976 h 1.36426 V -5.4115581 l -1.48415,0.2976563 v -0.7606774 l 1.47588,-0.2976563 h 0.83509 v 5.46943574 h 1.36426 V 0 h -3.55534 z"
         id="path1007" />
      <path
         d="m 516.64071,-5.6223981 q -0.64492,0 -0.97152,0.6366539 -0.32246,0.6325198 -0.32246,1.9058276 0,1.2691737 0.32246,1.9058276 0.3266,0.63251977 0.97152,0.63251977 0.64906,0 0.97152,-0.63251977 0.32659,-0.6366539 0.32659,-1.9058276 0,-1.2733078 -0.32659,-1.9058276 -0.32246,-0.6366539 -0.97152,-0.6366539 z m 0,-0.6614586 q 1.03766,0 1.58337,0.8226892 0.54984,0.818555 0.54984,2.3812509 0,1.5585618 -0.54984,2.38125096 -0.54571,0.81855501 -1.58337,0.81855501 -1.03766,0 -1.5875,-0.81855501 -0.5457,-0.82268916 -0.5457,-2.38125096 0,-1.5626959 0.5457,-2.3812509 0.54984,-0.8226892 1.5875,-0.8226892 z"
         id="path1009" />
      <path
         d="m 521.70918,-0.70279976 h 1.36426 V -5.4115581 l -1.48415,0.2976563 v -0.7606774 l 1.47588,-0.2976563 h 0.8351 v 5.46943574 h 1.36425 V 0 h -3.55534 z"
         id="path1011" />
      <path
         d="m 530.06008,-5.6223981 q -0.64492,0 -0.97151,0.6366539 -0.32246,0.6325198 -0.32246,1.9058276 0,1.2691737 0.32246,1.9058276 0.32659,0.63251977 0.97151,0.63251977 0.64906,0 0.97152,-0.63251977 0.3266,-0.6366539 0.3266,-1.9058276 0,-1.2733078 -0.3266,-1.9058276 -0.32246,-0.6366539 -0.97152,-0.6366539 z m 0,-0.6614586 q 1.03767,0 1.58337,0.8226892 0.54984,0.818555 0.54984,2.3812509 0,1.5585618 -0.54984,2.38125096 -0.5457,0.81855501 -1.58337,0.81855501 -1.03766,0 -1.5875,-0.81855501 -0.5457,-0.82268916 -0.5457,-2.38125096 0,-1.5626959 0.5457,-2.3812509 0.54984,-0.8226892 1.5875,-0.8226892 z"
         id="path1013" />
      <path
         d="m 535.1285,-0.70279976 h 1.36425 V -5.4115581 l -1.48414,0.2976563 v -0.7606774 l 1.47588,-0.2976563 h 0.83509 v 5.46943574 h 1.36426 V 0 h -3.55534 z"
         id="path1015" />
      <path
         d="m 541.83815,-0.70279976 h 1.36426 V -5.4115581 l -1.48415,0.2976563 v -0.7606774 l 1.47588,-0.2976563 h 0.83509 v 5.46943574 h 1.36426 V 0 h -3.55534 z"
         id="path1017" />
      <path
         d="m 548.54787,-0.70279976 h 1.36426 V -5.4115581 l -1.48415,0.2976563 v -0.7606774 l 1.47588,-0.2976563 h 0.83509 v 5.46943574 h 1.36426 V 0 h -3.55534 z"
         id="path1019" />
    </g>
  </g>
</svg>
