<?xml version="1.0" encoding="UTF-8" standalone="no"?>
<svg
   overflow="scroll"
   viewBox="0 0 476.49435 176.43073"
   version="1.1"
   id="svg60"
   sodipodi:docname="latex.svg"
   width="476.49435"
   height="176.43073"
   inkscape:version="1.2.2 (b0a84865, 2022-12-01)"
   xmlns:inkscape="http://www.inkscape.org/namespaces/inkscape"
   xmlns:sodipodi="http://sodipodi.sourceforge.net/DTD/sodipodi-0.dtd"
   xmlns="http://www.w3.org/2000/svg"
   xmlns:svg="http://www.w3.org/2000/svg">
  <defs
     id="defs64" />
  <sodipodi:namedview
     id="namedview62"
     pagecolor="#505050"
     bordercolor="#eeeeee"
     borderopacity="1"
     inkscape:showpageshadow="0"
     inkscape:pageopacity="0"
     inkscape:pagecheckerboard="0"
     inkscape:deskcolor="#505050"
     showgrid="false"
     inkscape:zoom="0.49166667"
     inkscape:cx="235.9322"
     inkscape:cy="92.542373"
     inkscape:window-width="1800"
     inkscape:window-height="1033"
     inkscape:window-x="0"
     inkscape:window-y="44"
     inkscape:window-maximized="1"
     inkscape:current-layer="svg60" />
  <path
     d="m 104.48256,84.19528 h -4.784 c -1.9136,19.51872 -4.59264,43.24736 -38.272,43.24736 H 45.9264 c -8.99392,0 -9.37664,-1.33952 -9.37664,-7.6544 V 18.17608 c 0,-6.50624 0,-9.18528 17.98784,-9.18528 h 6.31488 V 3.25 C 53.96352,3.82408 36.74112,3.82408 28.89536,3.82408 21.43232,3.82408 6.50624,3.82408 0,3.25 v 5.7408 h 4.40128 c 14.73472,0 15.11744,2.10496 15.11744,8.99392 v 100.464 c 0,6.88896 -0.38272,8.99392 -15.11744,8.99392 H 0 v 5.93216 h 99.31584 z"
     id="path50"
     style="stroke-width:19.136" />
  <path
     d="M 101.22986,3.06176 C 100.46442,0.76544 100.0817,0 97.59402,0 95.10634,0 94.53226,0.76544 93.76682,3.06176 L 62.95786,81.13664 c -1.33952,3.25312 -3.63584,9.18528 -15.50016,9.18528 v 4.784 h 29.6608 v -4.784 c -5.93216,0 -9.568,-2.67904 -9.568,-6.50624 0,-0.9568 0.19136,-1.33952 0.57408,-2.67904 l 6.50624,-16.45696 h 37.88928 l 7.6544,19.51872 c 0.38272,0.76544 0.76544,1.72224 0.76544,2.29632 0,3.8272 -7.27168,3.8272 -10.90752,3.8272 v 4.784 h 37.69792 v -4.784 h -2.67904 c -8.99392,0 -9.95072,-1.33952 -11.29024,-5.16672 z m -7.6544,13.58656 17.03104,43.24736 H 76.54442 Z"
     id="path52"
     style="stroke-width:19.136" />
  <path
     d="M 254.50642,4.4 H 137.96818 l -3.44448,42.86464 h 4.59264 c 2.67904,-30.80896 5.54944,-37.12384 34.4448,-37.12384 3.44448,0 8.41984,0 10.33344,0.38272 4.01856,0.76544 4.01856,2.8704 4.01856,7.27168 v 100.464 c 0,6.50624 0,9.18528 -20.0928,9.18528 h -7.6544 v 5.93216 c 7.84576,-0.57408 27.17312,-0.57408 35.97568,-0.57408 8.80256,0 28.51264,0 36.3584,0.57408 v -5.93216 h -7.6544 c -20.0928,0 -20.0928,-2.67904 -20.0928,-9.18528 V 17.7952 c 0,-3.8272 0,-6.50624 3.44448,-7.27168 2.10496,-0.38272 7.27168,-0.38272 10.90752,-0.38272 28.704,0 31.5744,6.31488 34.25344,37.12384 h 4.784 z"
     id="path54"
     style="stroke-width:19.136" />
  <path
     d="m 357.08146,127.2512 h -4.784 c -4.784,29.27808 -9.18528,43.24736 -41.90784,43.24736 H 285.1301 c -8.99392,0 -9.37664,-1.33952 -9.37664,-7.6544 V 111.9424 h 17.03104 c 18.56192,0 20.66688,6.12352 20.66688,22.38912 h 4.784 V 83.81248 h -4.784 c 0,16.2656 -2.10496,22.19776 -20.66688,22.19776 H 275.75346 V 60.2752 c 0,-6.31488 0.38272,-7.6544 9.37664,-7.6544 h 24.49408 c 29.27808,0 34.25344,10.5248 37.3152,37.12384 h 4.784 L 346.3653,46.88 H 239.2037 v 5.7408 h 4.40128 c 14.73472,0 15.11744,2.10496 15.11744,8.99392 v 99.88992 c 0,6.88896 -0.38272,8.99392 -15.11744,8.99392 h -4.40128 v 5.93216 h 109.84064 z"
     id="path56"
     style="stroke-width:19.136" />
  <path
     d="m 414.68506,59.7012 26.21632,-38.272 c 4.01856,-6.12352 10.5248,-12.24704 27.55584,-12.4384 V 3.25 h -45.54368 v 5.7408 c 7.6544,0.19136 11.86432,4.40128 11.86432,8.80256 0,1.9136 -0.38272,2.29632 -1.72224,4.40128 L 411.24058,54.34312 386.7465,17.602 c -0.38272,-0.57408 -1.33952,-2.10496 -1.33952,-2.8704 0,-2.29632 4.20992,-5.54944 12.24704,-5.7408 V 3.25 c -6.50624,0.57408 -20.47552,0.57408 -27.7472,0.57408 -5.93216,0 -17.79648,-0.19136 -24.8768,-0.57408 v 5.7408 h 3.63584 c 10.5248,0 14.16064,1.33952 17.79648,6.6976 l 35.01888,53.00672 -31.19168,46.11776 c -2.67904,3.8272 -8.41984,12.62976 -27.55584,12.62976 v 5.93216 h 45.54368 v -5.93216 c -8.80256,-0.19136 -12.05568,-5.35808 -12.05568,-8.80256 0,-1.72224 0.57408,-2.48768 1.9136,-4.59264 l 26.98176,-39.99424 30.23488,45.54368 c 0.38272,0.76544 0.9568,1.53088 0.9568,2.10496 0,2.29632 -4.20992,5.54944 -12.4384,5.7408 v 5.93216 c 6.6976,-0.57408 20.66688,-0.57408 27.7472,-0.57408 8.03712,0 16.83968,0.19136 24.8768,0.57408 v -5.93216 h -3.63584 c -9.95072,0 -13.96928,-0.9568 -17.98784,-6.88896 z"
     id="path58"
     style="stroke-width:19.136" />
</svg>
