<?xml version="1.0" encoding="UTF-8" standalone="no" ?>
<svg
    width="32"
    height="32"
    fill="#ffffff"
    viewBox="0 0 256 256"
    version="1.1"
    id="svg1"
    xmlns="http://www.w3.org/2000/svg"
    xmlns:svg="http://www.w3.org/2000/svg"
>
  <defs id="defs1" />
  <path
        d="M 232.7,50.48 C 229,45.7 221.84,40 209,40 192.15,40 170.54,51.28 151.19,70.16 A 140.07,140.07 0 0 0 136,87.53 V 56 a 8,8 0 0 0 -16,0 V 87.53 A 140.07,140.07 0 0 0 104.85,70.16 C 85.49,51.28 63.88,40 47,40 34.16,40 27,45.7 23.3,50.48 c -6.82,8.77 -12.18,24.08 -0.21,71.2 6.05,23.83 19.51,33 30.63,36.42 A 44,44 0 0 0 128,205.27 44,44 0 0 0 202.28,158.1 c 11.12,-3.4 24.57,-12.59 30.63,-36.42 6.72,-26.44 11.94,-55.58 -0.21,-71.2 z M 92,208 A 28.12,28.12 0 0 1 88.86,152 8,8 0 1 0 87.1,136.1 43.64,43.64 0 0 0 66.36,144 c -8.43,0.09 -22,-3.57 -27.76,-26.26 C 35.72,106.39 27,71.86 35.94,60.3 37.37,58.46 40.09,56 47,56 c 27.27,0 73,44.88 73,71.67 V 180 a 28,28 0 0 1 -28,28 z m 125.4,-90.26 c -5.77,22.69 -19.33,26.34 -27.77,26.26 a 43.6,43.6 0 0 0 -20.74,-7.95 8,8 0 1 0 -1.76,15.9 A 28.11,28.11 0 1 1 136,180 V 127.67 C 136,100.88 181.69,56 209,56 c 6.95,0 9.66,2.46 11.1,4.3 8.95,11.56 0.18,46.09 -2.7,57.44 z"
        id="path1"
    />
</svg>
